<?xml version="1.0" encoding="UTF-8" ?>
<!DOCTYPE svg PUBLIC "-//W3C//DTD SVG 1.1//EN" "http://www.w3.org/Graphics/SVG/1.1/DTD/svg11.dtd">
<svg width="48pt" height="48pt" viewBox="0 0 48 48" version="1.1" xmlns="http://www.w3.org/2000/svg">
<g id="#202124ff">
<path fill="#202124" opacity="1.00" d=" M 9.97 7.98 C 16.00 7.99 22.02 8.02 28.04 7.95 C 28.27 9.24 28.49 10.53 28.71 11.83 C 32.48 11.96 36.25 12.07 40.03 11.97 C 40.00 18.66 40.00 25.34 40.03 32.03 C 35.38 32.01 30.73 32.00 26.09 32.04 C 25.67 30.71 25.26 29.39 24.83 28.07 C 21.23 28.08 17.62 27.99 14.02 28.02 C 14.05 32.68 13.97 37.34 14.02 42.00 C 12.67 42.02 11.32 42.02 9.98 42.00 C 10.01 30.66 10.01 19.32 9.97 7.98 Z" />
</g>
</svg>
