<?xml version="1.0" encoding="UTF-8" ?>
<!DOCTYPE svg PUBLIC "-//W3C//DTD SVG 1.1//EN" "http://www.w3.org/Graphics/SVG/1.1/DTD/svg11.dtd">
<svg width="48pt" height="48pt" viewBox="0 0 48 48" version="1.1" xmlns="http://www.w3.org/2000/svg">
<g id="#202124ff">
<path fill="#202124" opacity="1.00" d=" M 13.35 10.45 C 17.19 8.44 22.40 11.63 22.06 16.02 C 22.44 20.94 15.89 24.03 12.23 20.85 C 8.65 18.32 9.33 12.17 13.35 10.45 Z" />
<path fill="#202124" opacity="1.00" d=" M 29.40 10.40 C 33.21 8.50 38.35 11.61 38.06 15.95 C 38.45 20.55 32.71 23.76 28.90 21.31 C 24.67 19.10 25.00 12.22 29.40 10.40 Z" />
<path fill="#202124" opacity="1.00" d=" M 4.30 29.13 C 11.27 24.83 20.74 24.84 27.70 29.14 C 30.97 30.94 29.89 34.97 30.00 38.00 C 20.67 38.00 11.33 38.00 1.99 38.00 C 2.12 34.96 1.01 30.91 4.30 29.13 Z" />
<path fill="#202124" opacity="1.00" d=" M 30.18 25.92 C 35.07 25.80 40.32 26.59 44.31 29.61 C 46.99 31.56 45.79 35.20 46.00 38.00 C 42.00 38.00 38.00 38.00 34.00 38.00 C 34.45 33.58 33.76 28.94 30.18 25.92 Z" />
</g>
</svg>
