<?xml version="1.0" encoding="UTF-8" ?>
<!DOCTYPE svg PUBLIC "-//W3C//DTD SVG 1.1//EN" "http://www.w3.org/Graphics/SVG/1.1/DTD/svg11.dtd">
<svg width="48pt" height="48pt" viewBox="0 0 48 48" version="1.1" xmlns="http://www.w3.org/2000/svg">
<g id="#ffffffff">
<path fill="#ffffff" opacity="1.00" d=" M 17.91 14.00 C 16.87 9.35 21.32 6.97 24.00 4.05 C 26.04 6.00 28.03 8.00 30.00 10.03 C 30.00 14.02 30.00 18.01 30.00 21.99 C 34.00 22.00 38.00 22.00 41.99 22.00 C 42.01 28.67 42.01 35.33 41.99 41.99 C 30.00 42.01 18.00 42.00 6.01 41.99 C 5.99 32.66 5.99 23.33 6.01 14.00 C 9.97 13.99 13.94 14.00 17.91 14.00 M 22.00 10.00 C 22.00 11.33 22.00 12.67 22.00 14.00 C 23.33 14.00 24.67 14.00 26.00 14.00 C 26.00 12.67 26.00 11.33 26.00 10.00 C 24.67 10.00 23.33 10.00 22.00 10.00 M 10.00 18.00 C 10.00 19.33 10.00 20.67 10.00 22.00 C 11.34 22.00 12.67 22.00 14.00 22.00 C 14.00 20.67 14.00 19.33 14.00 18.00 C 12.66 18.00 11.33 18.00 10.00 18.00 M 22.00 18.00 C 22.00 19.33 22.00 20.67 22.00 22.00 C 23.33 22.00 24.67 22.00 26.00 22.00 C 26.00 20.66 26.00 19.33 26.00 18.00 C 24.67 18.00 23.33 18.00 22.00 18.00 M 10.00 26.00 C 10.00 27.33 10.00 28.67 10.00 30.00 C 11.33 30.00 12.67 30.00 14.00 30.00 C 14.00 28.67 14.00 27.33 14.00 26.00 C 12.67 26.00 11.33 26.00 10.00 26.00 M 22.00 26.00 C 22.00 27.33 22.00 28.67 22.00 30.00 C 23.33 30.00 24.67 30.00 26.00 30.00 C 26.00 28.67 26.00 27.33 26.00 26.00 C 24.67 26.00 23.33 26.00 22.00 26.00 M 34.00 26.00 C 34.00 27.33 34.00 28.67 34.00 30.00 C 35.33 30.00 36.67 30.00 38.00 30.00 C 38.00 28.67 38.00 27.33 38.00 26.00 C 36.67 26.00 35.33 26.00 34.00 26.00 M 10.00 34.00 C 10.00 35.33 10.00 36.67 10.00 38.00 C 11.33 38.00 12.67 38.00 14.00 38.00 C 14.00 36.67 14.00 35.33 14.00 34.00 C 12.67 34.00 11.33 34.00 10.00 34.00 M 22.00 34.00 C 22.00 35.33 22.00 36.66 22.00 38.00 C 23.33 38.00 24.66 38.00 26.00 38.00 C 26.00 36.67 26.00 35.33 26.00 34.00 C 24.67 34.00 23.33 34.00 22.00 34.00 M 34.00 34.00 C 34.00 35.33 34.00 36.67 34.00 38.00 C 35.33 38.00 36.67 38.00 38.00 38.00 C 38.00 36.66 38.00 35.33 38.00 34.00 C 36.66 34.00 35.33 34.00 34.00 34.00 Z" />
</g>
</svg>
