<?xml version="1.0" encoding="UTF-8" ?>
<!DOCTYPE svg PUBLIC "-//W3C//DTD SVG 1.1//EN" "http://www.w3.org/Graphics/SVG/1.1/DTD/svg11.dtd">
<svg width="512pt" height="512pt" viewBox="0 0 512 512" version="1.1" xmlns="http://www.w3.org/2000/svg">
<g id="#ffffffff">
<path fill="#ffffff" opacity="1.00" d=" M 59.24 93.43 C 188.50 93.36 317.76 93.43 447.02 93.40 C 451.10 93.38 455.31 93.18 459.19 94.73 C 467.10 97.48 472.69 105.61 472.57 113.97 C 472.62 186.31 472.58 258.65 472.60 331.00 C 472.48 342.18 473.30 353.59 470.33 364.51 C 464.24 389.51 443.52 410.23 418.52 416.32 C 407.92 419.21 396.86 418.51 386.01 418.59 C 295.00 418.60 203.99 418.60 112.99 418.59 C 104.08 418.63 95.13 417.36 86.75 414.27 C 69.42 408.05 54.73 394.85 46.71 378.27 C 41.58 368.00 39.31 356.46 39.40 345.02 C 39.42 268.00 39.38 190.98 39.43 113.96 C 39.16 103.24 48.51 93.56 59.24 93.43 M 115.00 134.38 C 162.00 174.90 209.00 215.41 256.00 255.94 C 302.99 215.41 350.00 174.90 396.99 134.38 C 303.00 134.37 209.00 134.38 115.00 134.38 M 80.38 158.60 C 80.38 221.73 80.35 284.87 80.40 348.00 C 80.57 363.61 94.38 377.42 109.99 377.61 C 207.00 377.65 304.00 377.62 401.01 377.62 C 414.04 377.82 426.40 368.64 430.20 356.22 C 431.99 350.98 431.60 345.39 431.63 339.95 C 431.63 279.51 431.62 219.06 431.63 158.62 C 377.53 205.17 323.55 251.85 269.45 298.39 C 264.47 302.79 257.32 304.57 250.89 302.81 C 246.08 301.73 242.35 298.32 238.76 295.16 C 185.96 249.64 133.18 204.12 80.38 158.60 Z" />
</g>
</svg>
