<?xml version="1.0" encoding="UTF-8" ?>
<!DOCTYPE svg PUBLIC "-//W3C//DTD SVG 1.1//EN" "http://www.w3.org/Graphics/SVG/1.1/DTD/svg11.dtd">
<svg width="512pt" height="512pt" viewBox="0 0 512 512" version="1.1" xmlns="http://www.w3.org/2000/svg">
<g id="#ffffffff">
<path fill="#ffffff" opacity="1.00" d=" M 235.64 39.89 C 269.77 36.71 304.67 41.59 336.47 54.43 C 384.93 73.67 425.83 111.09 449.41 157.58 C 469.79 197.11 477.20 243.05 470.84 287.03 C 465.25 327.70 447.56 366.60 420.63 397.57 C 394.53 427.75 360.12 450.81 322.04 462.87 C 274.09 478.18 220.77 476.24 174.17 457.15 C 134.20 440.88 99.36 412.37 75.30 376.57 C 59.85 353.47 48.88 327.36 43.41 300.10 C 32.82 249.11 41.18 194.33 67.15 149.11 C 81.34 124.06 100.60 101.91 123.38 84.30 C 155.57 59.23 195.01 43.61 235.64 39.89 M 160.87 107.87 C 127.70 129.12 102.01 161.80 89.32 199.12 C 78.74 229.95 77.06 263.72 84.29 295.49 C 90.85 324.84 105.33 352.30 125.59 374.51 C 133.46 352.88 146.48 333.06 163.73 317.77 C 172.88 309.31 183.47 302.63 194.37 296.70 C 182.74 287.43 173.38 275.39 167.05 261.95 C 157.67 242.16 155.36 219.18 160.39 197.88 C 163.68 184.34 169.76 171.42 178.36 160.43 C 195.72 137.75 223.38 123.27 251.96 122.28 C 280.62 120.89 309.47 133.13 328.60 154.46 C 347.87 175.34 357.26 204.92 353.37 233.10 C 350.30 257.93 337.01 281.09 317.63 296.82 C 332.22 304.30 345.66 314.10 356.82 326.14 C 369.96 339.95 379.81 356.66 386.46 374.49 C 400.32 359.10 411.69 341.42 419.37 322.15 C 439.21 273.49 435.72 215.93 409.74 170.20 C 394.15 142.28 370.82 118.77 343.03 102.95 C 315.27 87.00 283.05 79.02 251.07 79.97 C 219.20 80.78 187.62 90.53 160.87 107.87 M 242.59 164.76 C 222.40 169.46 205.60 185.99 200.59 206.10 C 196.80 220.60 199.00 236.59 206.72 249.45 C 214.17 262.15 226.71 271.80 240.95 275.61 C 254.15 279.24 268.66 277.92 280.96 271.89 C 294.04 265.57 304.52 254.09 309.59 240.48 C 314.47 227.52 314.41 212.79 309.42 199.88 C 304.23 186.32 293.67 174.93 280.55 168.72 C 268.85 163.09 255.20 161.73 242.59 164.76 M 192.73 346.81 C 175.71 361.29 163.95 381.80 160.19 403.84 C 176.49 414.20 194.33 422.25 213.14 426.80 C 259.90 438.89 311.39 430.19 351.80 403.81 C 347.59 379.16 333.34 356.47 313.03 341.88 C 297.12 330.23 277.58 323.76 257.90 323.30 C 234.28 322.86 210.59 331.32 192.73 346.81 Z" />
</g>
</svg>
