<?xml version="1.0" encoding="UTF-8" ?>
<!DOCTYPE svg PUBLIC "-//W3C//DTD SVG 1.1//EN" "http://www.w3.org/Graphics/SVG/1.1/DTD/svg11.dtd">
<svg width="48pt" height="48pt" viewBox="0 0 48 48" version="1.1" xmlns="http://www.w3.org/2000/svg">
<g id="#202124ff">
<path fill="#202124" opacity="1.00" d=" M 2.09 17.98 C 9.19 13.65 16.76 9.96 24.01 5.81 C 31.27 10.00 38.86 13.68 46.00 18.03 C 46.00 23.35 46.00 28.68 46.00 34.00 C 44.67 34.01 43.33 34.01 42.00 34.00 C 41.92 29.45 42.16 24.88 41.87 20.34 C 35.97 23.70 29.93 26.82 24.03 30.19 C 16.77 26.04 9.16 22.37 2.09 17.98 Z" />
<path fill="#202124" opacity="1.00" d=" M 10.00 26.45 C 14.80 28.53 19.35 31.42 24.02 33.89 C 28.37 31.30 32.97 29.16 37.26 26.48 L 38.00 26.64 C 37.82 29.34 38.37 32.16 37.74 34.77 C 33.06 37.07 28.55 39.72 23.96 42.18 C 19.42 39.65 14.89 37.07 10.23 34.76 C 9.67 32.07 10.17 29.21 10.00 26.45 Z" />
</g>
</svg>
