<?xml version="1.0" encoding="UTF-8" ?>
<!DOCTYPE svg PUBLIC "-//W3C//DTD SVG 1.1//EN" "http://www.w3.org/Graphics/SVG/1.1/DTD/svg11.dtd">
<svg width="48pt" height="48pt" viewBox="0 0 48 48" version="1.1" xmlns="http://www.w3.org/2000/svg">
<g id="#ffffffff">
<path fill="#ffffff" opacity="1.00" d=" M 6.33 8.36 C 16.80 7.50 27.45 8.26 37.99 7.98 C 40.31 7.71 43.32 8.33 43.86 11.00 C 44.19 19.01 43.91 27.05 44.00 35.08 C 44.37 37.43 42.64 40.04 40.12 39.95 C 29.72 40.07 19.32 39.97 8.93 40.00 C 6.56 40.39 3.92 38.63 4.04 36.09 C 3.94 28.36 4.03 20.63 4.01 12.90 C 3.86 11.10 4.56 9.10 6.33 8.36 M 8.00 12.00 C 8.00 13.33 8.00 14.66 8.00 16.00 C 13.33 19.33 18.67 22.66 24.00 26.00 C 29.33 22.66 34.67 19.33 40.00 15.99 C 40.00 14.66 40.00 13.33 39.99 12.00 C 34.67 15.34 29.33 18.66 24.00 22.00 C 18.67 18.67 13.33 15.34 8.00 12.00 Z" />
</g>
</svg>
