<?xml version="1.0" encoding="UTF-8" ?>
<!DOCTYPE svg PUBLIC "-//W3C//DTD SVG 1.1//EN" "http://www.w3.org/Graphics/SVG/1.1/DTD/svg11.dtd">
<svg width="48pt" height="48pt" viewBox="0 0 48 48" version="1.1" xmlns="http://www.w3.org/2000/svg">
<g id="#ffffffff">
<path fill="#ffffff" opacity="1.00" d=" M 18.16 5.98 C 19.42 3.91 21.28 1.86 23.95 1.98 C 26.65 1.81 28.54 3.88 29.81 5.98 C 33.72 6.64 40.21 4.03 41.87 9.06 C 42.18 18.37 41.91 27.71 42.00 37.03 C 42.38 39.41 40.64 42.07 38.08 41.96 C 28.68 42.03 19.28 42.03 9.89 41.96 C 7.82 42.03 5.96 40.17 6.02 38.11 C 5.93 29.04 6.01 19.97 5.98 10.90 C 5.74 8.84 6.87 6.51 9.06 6.13 C 12.08 5.83 15.13 6.06 18.16 5.98 M 23.07 6.09 C 20.89 7.25 22.36 10.84 24.75 9.91 C 27.27 8.88 25.55 4.99 23.07 6.09 M 14.00 14.00 C 14.00 15.33 14.00 16.67 14.00 18.00 C 20.67 18.00 27.33 18.00 34.00 18.00 C 34.00 16.67 34.00 15.33 34.00 14.00 C 27.33 14.00 20.67 14.00 14.00 14.00 M 14.00 22.00 C 14.00 23.33 14.00 24.67 14.00 26.00 C 20.67 26.00 27.33 26.00 34.00 26.00 C 34.00 24.67 34.00 23.33 34.00 22.00 C 27.33 22.00 20.67 22.00 14.00 22.00 M 14.00 30.00 C 14.00 31.33 14.00 32.67 14.00 34.00 C 18.67 34.00 23.33 34.00 28.00 34.00 C 28.00 32.67 28.00 31.33 28.00 30.00 C 23.33 30.00 18.67 30.00 14.00 30.00 Z" />
</g>
</svg>
