<?xml version="1.0" encoding="UTF-8" ?>
<!DOCTYPE svg PUBLIC "-//W3C//DTD SVG 1.1//EN" "http://www.w3.org/Graphics/SVG/1.1/DTD/svg11.dtd">
<svg width="512pt" height="512pt" viewBox="0 0 512 512" version="1.1" xmlns="http://www.w3.org/2000/svg">
<g id="#ffffffff">
<path fill="#ffffff" opacity="1.00" d=" M 46.73 92.65 C 59.83 78.67 78.86 70.61 98.00 70.73 C 166.66 70.68 235.31 70.71 303.97 70.71 C 319.40 70.56 334.89 75.44 347.21 84.81 C 364.42 97.58 375.17 118.55 375.32 140.00 C 375.46 175.39 375.31 210.79 375.39 246.18 C 383.92 246.17 392.45 246.16 400.98 246.17 C 410.67 246.23 420.50 245.68 430.00 247.99 C 448.23 252.08 464.53 263.86 474.23 279.81 C 481.11 290.90 484.62 303.95 484.61 316.98 C 484.61 333.65 484.69 350.33 484.57 367.00 C 484.41 383.15 478.87 399.20 468.96 411.96 C 457.60 426.79 440.53 437.11 422.09 440.17 C 415.77 441.30 409.34 441.31 402.95 441.30 C 306.63 441.30 210.32 441.30 114.01 441.30 C 106.03 441.23 97.98 441.61 90.09 440.19 C 69.01 436.81 49.78 423.79 38.64 405.59 C 31.07 393.53 27.27 379.26 27.38 365.04 C 27.37 290.70 27.37 216.37 27.38 142.03 C 27.15 123.89 34.15 105.75 46.73 92.65 M 68.36 140.04 C 68.31 215.03 68.37 290.02 68.33 365.02 C 68.26 369.36 68.85 373.73 70.37 377.82 C 74.95 390.87 88.10 400.35 101.97 400.32 C 182.19 400.33 262.40 400.33 342.62 400.32 C 337.42 389.67 334.44 377.92 334.41 366.05 C 334.39 290.70 334.43 215.36 334.39 140.02 C 334.20 127.89 325.55 116.56 313.97 113.04 C 308.85 111.26 303.36 111.72 298.04 111.67 C 231.69 111.67 165.33 111.69 98.98 111.66 C 83.22 110.61 68.43 124.22 68.36 140.04 M 375.38 287.12 C 375.38 313.43 375.37 339.73 375.38 366.04 C 375.32 372.25 377.04 378.44 380.25 383.76 C 387.47 396.14 402.96 402.86 416.93 399.53 C 431.87 396.43 443.57 382.30 443.65 367.01 C 443.64 349.69 443.71 332.37 443.62 315.06 C 443.29 300.52 430.56 287.68 416.04 287.19 C 402.48 287.03 388.93 287.17 375.38 287.12 Z" />
<path fill="#ffffff" opacity="1.00" d=" M 138.39 186.64 C 140.84 185.84 143.44 185.71 146.00 185.73 C 183.99 185.75 221.99 185.71 259.98 185.74 C 270.77 185.51 280.53 195.19 280.42 205.98 C 280.79 216.93 270.94 226.90 260.00 226.68 C 221.36 226.69 182.71 226.70 144.07 226.68 C 136.99 226.66 130.21 222.45 126.72 216.34 C 123.01 210.23 123.05 202.05 126.80 195.96 C 129.31 191.53 133.59 188.23 138.39 186.64 Z" />
<path fill="#ffffff" opacity="1.00" d=" M 143.27 285.35 C 182.19 285.26 221.12 285.33 260.05 285.32 C 270.97 285.13 280.78 295.07 280.42 305.99 C 280.54 316.79 270.78 326.48 259.98 326.26 C 221.64 326.28 183.30 326.26 144.96 326.27 C 137.63 326.53 130.46 322.37 126.81 316.06 C 123.21 310.24 123.01 302.48 126.27 296.47 C 129.48 290.15 136.16 285.68 143.27 285.35 Z" />
</g>
</svg>
