<?xml version="1.0" encoding="UTF-8" ?>
<!DOCTYPE svg PUBLIC "-//W3C//DTD SVG 1.1//EN" "http://www.w3.org/Graphics/SVG/1.1/DTD/svg11.dtd">
<svg width="48pt" height="48pt" viewBox="0 0 48 48" version="1.1" xmlns="http://www.w3.org/2000/svg">
<g id="#ffffffff">
<path fill="#ffffff" opacity="1.00" d=" M 17.99 6.00 C 19.33 6.00 20.66 6.00 22.00 6.00 C 22.00 7.33 22.00 8.67 22.00 10.00 C 23.33 10.00 24.67 10.00 26.00 10.00 C 26.00 8.67 26.00 7.33 26.00 6.00 C 27.34 6.00 28.67 6.00 30.00 6.00 C 30.00 7.33 30.00 8.66 29.99 9.99 C 32.25 10.19 35.04 9.35 36.83 11.16 C 38.64 12.96 37.81 15.74 38.02 18.01 C 39.34 18.00 40.67 18.00 42.00 17.99 C 42.00 19.33 42.00 20.66 42.00 22.00 C 40.67 22.00 39.33 22.00 38.00 22.00 C 38.00 23.33 38.00 24.67 38.00 26.00 C 39.33 26.00 40.67 26.00 42.00 26.00 C 42.00 27.34 42.00 28.67 42.00 30.01 C 40.67 30.00 39.34 29.99 38.02 29.99 C 37.81 32.25 38.64 35.03 36.83 36.83 C 35.03 38.64 32.25 37.81 29.99 38.01 C 30.00 39.34 30.00 40.67 30.00 42.00 C 28.67 42.00 27.34 42.00 26.00 42.00 C 26.00 40.67 26.00 39.33 26.00 38.00 C 24.67 38.00 23.33 38.00 22.00 38.00 C 22.00 39.33 22.00 40.67 22.00 42.00 C 20.66 42.00 19.33 42.00 17.99 42.00 C 18.00 40.67 18.00 39.34 18.01 38.02 C 15.74 37.81 12.96 38.65 11.16 36.83 C 9.35 35.04 10.19 32.25 9.99 29.99 C 8.66 30.00 7.33 30.00 6.00 30.00 C 6.00 28.67 6.00 27.34 6.00 26.00 C 7.33 26.00 8.67 26.00 10.00 26.00 C 10.00 24.67 10.00 23.33 10.00 22.00 C 8.67 22.00 7.33 22.00 6.00 22.00 C 6.00 20.66 6.00 19.33 6.00 17.99 C 7.33 18.00 8.66 18.00 9.98 18.01 C 10.19 15.74 9.36 12.97 11.16 11.16 C 12.97 9.36 15.74 10.19 18.01 9.98 C 18.00 8.66 18.00 7.33 17.99 6.00 M 13.99 13.99 C 14.01 20.66 14.01 27.34 13.99 34.01 C 20.66 33.99 27.34 33.99 34.01 34.01 C 33.99 27.34 33.99 20.66 34.01 13.99 C 27.34 14.01 20.66 14.01 13.99 13.99 Z" />
<path fill="#ffffff" opacity="1.00" d=" M 17.99 17.99 C 22.00 18.01 26.00 18.01 30.01 17.99 C 29.99 22.00 29.99 26.00 30.01 30.01 C 26.00 29.99 22.00 29.99 17.99 30.01 C 18.01 26.00 18.01 22.00 17.99 17.99 M 22.00 22.00 C 22.00 23.33 22.00 24.67 22.00 26.00 C 23.33 26.00 24.67 26.00 26.00 26.00 C 26.00 24.67 26.00 23.33 26.00 22.00 C 24.67 22.00 23.33 22.00 22.00 22.00 Z" />
</g>
</svg>
