<?xml version="1.0" encoding="UTF-8" ?>
<!DOCTYPE svg PUBLIC "-//W3C//DTD SVG 1.1//EN" "http://www.w3.org/Graphics/SVG/1.1/DTD/svg11.dtd">
<svg width="512pt" height="512pt" viewBox="0 0 512 512" version="1.1" xmlns="http://www.w3.org/2000/svg">
<g id="#ffffffff">
<path fill="#ffffff" opacity="1.00" d=" M 244.85 66.60 C 251.44 62.22 260.54 62.21 267.13 66.59 C 326.78 104.68 386.44 142.75 446.09 180.84 C 450.02 183.57 454.48 185.63 457.90 189.05 C 461.73 192.97 463.80 198.47 463.64 203.94 C 463.63 278.63 463.65 353.31 463.64 428.00 C 463.98 438.67 454.66 448.49 443.98 448.67 C 401.68 448.74 359.37 448.69 317.06 448.70 C 306.36 449.06 296.52 439.68 296.37 428.97 C 296.30 381.11 296.36 333.24 296.34 285.37 C 269.45 285.35 242.55 285.35 215.66 285.37 C 215.66 331.24 215.65 377.12 215.66 422.99 C 215.62 426.31 215.89 429.70 215.09 432.97 C 213.34 440.28 207.29 446.35 199.99 448.12 C 197.05 448.88 194.00 448.68 191.00 448.71 C 150.02 448.67 109.04 448.74 68.07 448.68 C 57.38 448.50 48.02 438.70 48.36 428.01 C 48.36 353.04 48.35 278.07 48.37 203.10 C 48.33 195.72 52.70 188.73 59.10 185.18 C 121.03 145.66 182.93 106.12 244.85 66.60 M 89.33 214.47 C 89.32 278.89 89.34 343.31 89.32 407.73 C 117.78 407.73 146.24 407.76 174.70 407.71 C 174.68 360.14 174.70 312.57 174.68 264.99 C 174.40 254.11 184.15 244.23 195.04 244.39 C 235.71 244.39 276.38 244.38 317.04 244.39 C 327.55 244.29 337.06 253.52 337.29 264.02 C 337.34 311.92 337.30 359.83 337.31 407.73 C 365.77 407.72 394.23 407.75 422.69 407.72 C 422.57 343.25 422.84 278.77 422.55 214.30 C 366.94 179.04 311.53 143.46 256.00 108.07 C 200.44 143.54 144.89 179.01 89.33 214.47 Z" />
</g>
</svg>
