<?xml version="1.0" encoding="UTF-8" ?>
<!DOCTYPE svg PUBLIC "-//W3C//DTD SVG 1.1//EN" "http://www.w3.org/Graphics/SVG/1.1/DTD/svg11.dtd">
<svg width="1200pt" height="1200pt" viewBox="0 0 1200 1200" version="1.1" xmlns="http://www.w3.org/2000/svg">
<g id="#000000ff">
</g>
<g id="#ffffffff">
<path fill="#ffffff" opacity="1.00" d=" M 562.59 150.57 C 587.51 124.47 624.02 110.09 660.04 112.19 C 686.45 113.46 712.33 123.33 732.85 140.00 C 760.72 140.05 788.59 139.89 816.46 140.08 C 817.67 141.30 819.46 141.02 821.02 141.21 C 863.71 143.98 906.13 152.54 946.19 167.68 C 997.75 187.11 1045.01 218.03 1082.98 258.00 C 1136.89 314.43 1171.72 387.64 1186.08 464.05 C 1200.38 540.07 1195.34 619.80 1170.58 693.14 C 1168.20 700.67 1165.01 707.92 1162.62 715.45 C 1153.66 681.96 1131.15 652.53 1101.81 634.22 C 1068.12 612.98 1025.22 607.33 987.14 618.91 C 1002.85 568.49 1001.05 512.69 981.65 463.54 C 970.78 436.04 954.14 410.72 932.52 390.49 C 912.74 371.88 888.84 357.77 863.16 348.99 C 841.87 341.67 819.44 337.87 796.97 337.02 C 775.60 336.97 754.24 337.01 732.87 337.00 C 716.89 349.90 697.73 358.84 677.56 362.73 C 642.43 369.65 604.58 360.78 576.34 338.73 C 547.60 316.84 529.11 282.11 527.25 246.01 C 524.96 211.10 538.11 175.56 562.59 150.57 Z" />
<path fill="#ffffff" opacity="1.00" d=" M 475.38 968.32 C 529.14 914.54 582.94 860.80 636.69 807.01 C 670.81 806.99 704.92 807.01 739.04 807.00 C 750.33 807.10 761.75 806.42 772.89 808.70 C 795.94 812.94 817.20 825.90 831.70 844.30 C 845.99 862.16 853.64 885.15 852.96 908.00 C 852.50 930.16 844.20 952.04 829.88 968.94 C 811.65 990.85 783.54 1004.09 755.02 1003.99 C 633.01 1004.01 511.01 1003.99 389.00 1004.00 L 389.01 1002.34 C 411.06 1004.87 433.94 999.70 452.65 987.72 C 461.17 982.44 468.44 975.48 475.38 968.32 Z" />
</g>
<g id="#acacacff">
<path fill="#acacac" opacity="1.00" d=" M 383.06 140.93 C 397.02 140.02 411.01 139.94 425.00 140.00 C 464.11 140.00 503.22 139.99 542.33 140.00 C 515.83 166.70 500.91 204.38 502.09 241.99 C 502.71 277.27 517.53 311.88 542.25 337.00 C 496.84 336.94 451.43 337.13 406.02 336.89 C 376.92 337.72 347.77 343.32 321.05 355.07 C 296.75 365.65 274.69 381.34 256.81 400.90 C 228.88 431.28 211.35 470.43 204.82 511.01 C 197.70 555.05 203.02 601.23 221.07 642.10 C 234.77 673.25 256.27 701.11 283.71 721.35 C 311.39 741.97 344.71 754.35 378.81 758.91 C 357.82 779.89 336.84 800.88 315.85 821.86 C 308.55 829.24 300.80 836.30 294.88 844.90 C 275.26 872.34 271.48 910.06 285.19 940.87 C 247.57 930.05 211.41 913.91 178.77 892.25 C 122.56 855.27 77.55 802.20 48.36 741.72 C 9.38 661.38 -3.16 569.03 10.07 480.92 C 20.70 409.83 48.63 340.87 93.37 284.37 C 133.77 232.91 188.33 192.88 249.30 169.26 C 291.96 152.61 337.40 143.55 383.06 140.93 Z" />
<path fill="#acacac" opacity="1.00" d=" M 365.57 456.37 C 376.54 452.19 388.27 450.08 400.00 450.01 C 520.67 449.98 641.35 450.02 762.02 449.99 C 778.08 451.08 794.00 455.75 807.77 464.20 C 824.78 474.56 838.59 490.16 846.61 508.41 C 854.42 526.02 856.86 545.96 853.52 564.93 C 850.50 582.54 842.52 599.26 830.72 612.67 C 823.39 620.67 815.46 628.10 807.87 635.85 C 750.81 692.90 693.75 749.96 636.69 807.01 C 582.94 860.80 529.14 914.54 475.38 968.32 C 468.44 975.48 461.17 982.44 452.65 987.72 C 433.94 999.70 411.06 1004.87 389.01 1002.34 C 358.55 999.14 330.31 980.54 315.14 953.97 C 304.12 935.13 299.86 912.52 302.97 890.94 C 305.85 870.13 315.78 850.42 330.63 835.58 C 393.48 772.72 456.34 709.86 519.20 647.01 C 479.46 646.98 439.72 647.02 399.98 646.99 C 381.95 646.95 363.95 641.84 348.65 632.28 C 332.16 622.10 318.82 606.92 310.82 589.27 C 301.42 568.79 299.51 545.07 305.26 523.31 C 313.06 493.02 336.26 467.28 365.57 456.37 Z" />
<path fill="#acacac" opacity="1.00" d=" M 1010.57 635.78 C 1047.00 631.54 1084.95 644.20 1111.42 669.61 C 1136.10 692.75 1150.82 726.14 1150.98 760.00 C 1151.63 795.10 1136.66 830.08 1110.89 853.90 C 1082.87 880.48 1042.21 892.82 1004.13 886.36 C 973.22 881.49 944.53 864.44 925.20 839.87 C 914.11 825.82 906.01 809.41 901.74 792.02 C 894.66 763.68 897.76 732.92 910.51 706.63 C 925.09 676.17 952.35 652.08 984.43 641.49 C 992.90 638.67 1001.68 636.75 1010.57 635.78 Z" />
</g>
</svg>
