<?xml version="1.0" encoding="UTF-8" ?>
<!DOCTYPE svg PUBLIC "-//W3C//DTD SVG 1.1//EN" "http://www.w3.org/Graphics/SVG/1.1/DTD/svg11.dtd">
<svg width="48pt" height="48pt" viewBox="0 0 48 48" version="1.1" xmlns="http://www.w3.org/2000/svg">
<g id="#ffffffff">
<path fill="#ffffff" opacity="1.00" d=" M 4.00 10.99 C 17.33 10.99 30.66 10.99 44.00 10.99 C 44.00 12.33 44.00 13.67 44.00 15.01 C 30.66 15.01 17.33 15.01 4.00 15.01 C 4.00 13.67 4.00 12.33 4.00 10.99 Z" />
<path fill="#ffffff" opacity="1.00" d=" M 4.00 20.99 C 17.33 20.99 30.66 20.99 44.00 20.99 C 44.00 22.33 44.00 23.67 44.00 25.01 C 30.66 25.01 17.33 25.01 4.00 25.01 C 4.00 23.67 4.00 22.33 4.00 20.99 Z" />
<path fill="#ffffff" opacity="1.00" d=" M 4.00 30.99 C 17.33 30.99 30.66 30.99 44.00 30.99 C 44.00 32.33 44.00 33.67 44.00 35.01 C 30.66 35.01 17.33 35.01 4.00 35.01 C 4.00 33.67 4.00 32.33 4.00 30.99 Z" />
</g>
</svg>
