<?xml version="1.0" encoding="UTF-8" ?>
<!DOCTYPE svg PUBLIC "-//W3C//DTD SVG 1.1//EN" "http://www.w3.org/Graphics/SVG/1.1/DTD/svg11.dtd">
<svg width="48pt" height="48pt" viewBox="0 0 48 48" version="1.1" xmlns="http://www.w3.org/2000/svg">
<g id="#202124ff">
<path fill="#202124" opacity="1.00" d=" M 18.56 4.62 C 23.79 3.23 29.63 3.86 34.28 6.71 C 40.31 10.17 44.22 17.06 44.06 24.01 C 44.22 30.98 40.25 37.88 34.19 41.32 C 28.07 45.04 19.89 45.02 13.77 41.31 C 7.40 37.70 3.43 30.28 3.95 22.98 C 4.14 14.53 10.41 6.77 18.56 4.62 M 19.95 28.24 C 17.24 26.29 15.29 23.48 12.66 21.41 C 11.85 22.26 11.03 23.10 10.22 23.95 C 13.39 27.32 16.73 30.53 20.00 33.79 C 25.96 27.89 31.88 21.95 37.80 16.01 C 36.97 15.14 36.13 14.27 35.30 13.41 C 29.98 18.13 25.42 23.75 19.95 28.24 Z" />
</g>
</svg>
