<?xml version="1.0" encoding="UTF-8" ?>
<!DOCTYPE svg PUBLIC "-//W3C//DTD SVG 1.1//EN" "http://www.w3.org/Graphics/SVG/1.1/DTD/svg11.dtd">
<svg width="48pt" height="48pt" viewBox="0 0 48 48" version="1.1" xmlns="http://www.w3.org/2000/svg">
<g id="#202124ff">
<path fill="#202124" opacity="1.00" d=" M 22.05 8.06 C 26.94 6.78 32.40 10.87 32.06 16.00 C 32.32 20.29 28.33 24.30 24.04 24.06 C 19.71 24.36 15.65 20.32 15.94 15.98 C 15.71 12.30 18.55 8.94 22.05 8.06 Z" />
<path fill="#202124" opacity="1.00" d=" M 8.19 34.27 C 10.67 30.27 15.63 29.11 19.92 28.22 C 26.09 27.40 32.86 28.36 37.97 32.10 C 40.68 33.87 39.99 37.25 40.01 40.00 C 29.33 40.00 18.66 40.00 7.99 40.00 C 8.04 38.09 7.79 36.15 8.19 34.27 Z" />
</g>
</svg>
