<?xml version="1.0" encoding="UTF-8" ?>
<!DOCTYPE svg PUBLIC "-//W3C//DTD SVG 1.1//EN" "http://www.w3.org/Graphics/SVG/1.1/DTD/svg11.dtd">
<svg width="512pt" height="512pt" viewBox="0 0 512 512" version="1.1" xmlns="http://www.w3.org/2000/svg">
<g id="#ffffffff">
<path fill="#ffffff" opacity="1.00" d=" M 102.26 32.34 C 198.50 32.16 294.75 32.32 390.99 32.26 C 402.65 32.43 414.54 31.45 425.92 34.57 C 450.74 40.75 471.28 61.29 477.43 86.12 C 479.84 94.88 479.82 104.03 479.73 113.04 C 479.73 211.02 479.75 309.00 479.73 406.99 C 479.89 422.30 475.13 437.64 466.07 450.01 C 456.23 463.66 441.46 473.67 425.10 477.63 C 417.23 479.68 409.05 479.81 400.97 479.74 C 302.29 479.73 203.61 479.75 104.93 479.73 C 87.25 479.93 69.58 473.44 56.43 461.61 C 44.35 450.94 36.01 436.09 33.35 420.18 C 32.21 413.86 32.24 407.40 32.26 401.00 C 32.26 304.34 32.26 207.68 32.26 111.02 C 32.19 103.29 32.30 95.46 34.12 87.91 C 37.76 71.85 47.21 57.23 60.26 47.22 C 72.19 37.94 87.15 32.63 102.26 32.34 M 73.25 102.92 C 73.19 164.21 73.22 225.51 73.23 286.80 C 85.16 274.87 97.06 262.93 109.01 251.03 C 113.38 246.61 119.66 244.02 125.90 244.77 C 131.10 245.17 135.79 247.99 139.35 251.67 C 172.68 284.98 205.98 318.30 239.30 351.61 C 253.38 337.56 267.41 323.46 281.52 309.43 C 286.74 304.12 294.85 301.77 302.01 304.06 C 307.44 305.61 311.41 309.82 315.21 313.75 C 353.63 352.16 392.04 390.59 430.46 429.00 C 435.65 423.32 438.90 415.82 438.79 408.06 C 438.75 306.35 438.83 204.64 438.75 102.93 C 438.64 87.25 424.72 73.35 409.04 73.25 C 307.01 73.20 204.98 73.20 102.96 73.24 C 87.28 73.35 73.37 87.24 73.25 102.92 M 73.32 344.53 C 73.10 366.04 73.25 387.55 73.25 409.06 C 73.36 424.74 87.27 438.64 102.94 438.75 C 196.05 438.83 289.16 438.76 382.26 438.78 C 353.60 410.05 324.88 381.36 296.18 352.66 C 282.26 366.57 268.36 380.50 254.43 394.40 C 250.39 398.50 244.81 401.25 238.98 401.07 C 233.21 401.07 227.82 398.18 223.87 394.12 C 190.53 360.79 157.21 327.43 123.85 294.10 C 106.99 310.90 90.27 327.82 73.32 344.53 Z" />
<path fill="#ffffff" opacity="1.00" d=" M 309.62 109.84 C 327.63 106.78 346.63 110.45 362.39 119.63 C 378.45 128.92 391.09 143.96 397.43 161.40 C 403.89 178.82 403.95 198.46 397.56 215.91 C 390.68 235.27 375.95 251.65 357.51 260.67 C 341.14 268.73 321.96 271.08 304.19 266.78 C 285.46 262.50 268.49 251.13 257.33 235.50 C 245.03 218.54 239.72 196.55 243.33 175.87 C 246.13 158.41 255.02 142.00 268.06 130.05 C 279.51 119.41 294.18 112.27 309.62 109.84 M 313.58 150.69 C 303.56 152.97 294.59 159.40 289.15 168.11 C 283.95 176.26 282.01 186.42 283.81 195.91 C 285.68 206.48 292.26 216.05 301.29 221.80 C 310.17 227.61 321.51 229.41 331.78 226.78 C 350.78 222.38 364.36 202.25 360.95 182.96 C 359.35 171.90 352.61 161.77 343.17 155.83 C 334.55 150.18 323.59 148.41 313.58 150.69 Z" />
</g>
</svg>
