<?xml version="1.0" encoding="UTF-8" ?>
<!DOCTYPE svg PUBLIC "-//W3C//DTD SVG 1.1//EN" "http://www.w3.org/Graphics/SVG/1.1/DTD/svg11.dtd">
<svg width="48pt" height="48pt" viewBox="0 0 48 48" version="1.1" xmlns="http://www.w3.org/2000/svg">
<g id="#202124ff">
<path fill="#202124" opacity="1.00" d=" M 21.36 4.42 C 25.17 2.49 30.45 5.61 30.06 10.00 C 30.51 14.94 23.86 18.04 20.22 14.84 C 16.64 12.30 17.33 6.15 21.36 4.42 Z" />
<path fill="#202124" opacity="1.00" d=" M 6.00 15.97 C 12.62 15.70 19.12 18.48 24.00 22.87 C 28.87 18.46 35.38 15.69 42.00 15.97 C 42.00 23.29 42.00 30.62 42.00 37.95 C 35.39 38.24 28.88 40.67 24.00 45.20 C 19.10 40.68 12.61 38.24 6.00 37.95 C 6.00 30.62 6.00 23.29 6.00 15.97 Z" />
</g>
</svg>
