<?xml version="1.0" encoding="UTF-8" ?>
<!DOCTYPE svg PUBLIC "-//W3C//DTD SVG 1.1//EN" "http://www.w3.org/Graphics/SVG/1.1/DTD/svg11.dtd">
<svg width="48pt" height="48pt" viewBox="0 0 48 48" version="1.1" xmlns="http://www.w3.org/2000/svg">
<g id="#ffffffff">
<path fill="#ffffff" opacity="1.00" d=" M 30.24 10.26 C 32.11 8.91 33.37 5.76 36.01 6.04 C 38.13 7.83 40.10 9.82 41.91 11.93 C 42.28 14.58 39.09 15.87 37.73 17.74 C 35.23 15.25 32.74 12.75 30.24 10.26 Z" />
<path fill="#ffffff" opacity="1.00" d=" M 6.06 34.35 C 13.49 27.10 20.76 19.68 28.13 12.36 C 30.63 14.86 33.13 17.36 35.62 19.86 C 28.29 27.24 20.88 34.53 13.60 41.95 C 11.07 42.00 8.54 42.02 6.01 41.99 C 5.97 39.45 6.00 36.90 6.06 34.35 Z" />
</g>
</svg>
