<?xml version="1.0" encoding="UTF-8" ?>
<!DOCTYPE svg PUBLIC "-//W3C//DTD SVG 1.1//EN" "http://www.w3.org/Graphics/SVG/1.1/DTD/svg11.dtd">
<svg width="48pt" height="48pt" viewBox="0 0 48 48" version="1.1" xmlns="http://www.w3.org/2000/svg">
<g id="#ffffffff">
<path fill="#ffffff" opacity="1.00" d=" M 4.05 12.00 C 3.92 9.84 5.84 7.92 7.99 8.05 C 19.99 7.93 32.00 8.02 44.00 8.02 C 44.00 9.34 44.00 10.66 44.00 11.98 C 32.00 12.03 20.00 11.98 8.00 12.00 C 8.00 19.33 8.00 26.67 8.00 34.00 C 14.67 34.01 21.34 33.98 28.01 34.01 C 27.99 36.00 27.99 38.00 28.01 39.99 C 18.68 40.02 9.34 39.99 0.00 40.00 L 0.00 34.06 C 1.34 34.02 2.67 33.98 4.01 33.94 C 4.05 26.63 3.90 19.31 4.05 12.00 Z" />
<path fill="#ffffff" opacity="1.00" d=" M 32.28 16.28 C 37.50 15.85 42.78 15.78 48.00 16.37 L 48.00 39.42 C 42.85 40.50 37.50 40.02 32.28 39.71 C 31.82 31.92 31.82 24.07 32.28 16.28 M 36.00 20.00 C 36.00 24.67 36.00 29.33 36.00 34.00 C 38.67 34.00 41.33 34.00 44.00 34.00 C 44.00 29.33 44.00 24.67 44.00 20.00 C 41.33 20.00 38.67 20.00 36.00 20.00 Z" />
</g>
</svg>
