<?xml version="1.0" encoding="UTF-8" ?>
<!DOCTYPE svg PUBLIC "-//W3C//DTD SVG 1.1//EN" "http://www.w3.org/Graphics/SVG/1.1/DTD/svg11.dtd">
<svg width="512pt" height="512pt" viewBox="0 0 512 512" version="1.1" xmlns="http://www.w3.org/2000/svg">
<g id="#ffffffff">
<path fill="#ffffff" opacity="1.00" d=" M 239.12 35.33 C 250.57 30.92 263.63 31.29 274.89 36.11 C 286.22 40.89 295.42 49.56 302.82 59.19 C 317.18 78.22 325.81 100.82 332.50 123.50 C 353.25 118.46 374.65 114.94 396.06 116.35 C 410.99 117.41 426.43 121.13 438.28 130.74 C 450.77 140.68 457.57 157.10 456.13 172.97 C 454.87 190.75 446.61 207.14 436.97 221.81 C 428.81 234.10 419.16 245.32 409.02 256.00 C 424.12 271.88 438.24 289.14 447.72 309.04 C 453.72 321.88 457.81 336.27 455.74 350.53 C 453.67 365.37 444.30 378.87 431.24 386.17 C 416.42 394.64 398.86 396.51 382.08 396.07 C 365.32 395.52 348.74 392.59 332.49 388.57 C 325.72 411.46 316.98 434.29 302.36 453.42 C 293.26 465.17 281.04 475.48 266.17 478.62 C 251.65 482.10 236.05 477.55 224.48 468.44 C 209.77 456.98 199.97 440.54 192.28 423.84 C 187.12 412.43 183.01 400.57 179.52 388.56 C 160.72 393.20 141.43 396.46 122.02 396.11 C 106.42 395.72 90.22 392.82 77.11 383.87 C 63.23 374.54 54.84 357.75 55.75 341.05 C 56.27 326.43 61.90 312.56 68.99 299.96 C 78.22 283.82 90.17 269.41 102.98 256.00 C 89.54 241.88 76.97 226.72 67.61 209.55 C 61.21 197.65 56.22 184.62 55.76 170.98 C 54.81 154.03 63.47 136.92 77.79 127.76 C 92.56 118.10 110.79 115.83 128.07 116.05 C 145.44 116.35 162.64 119.39 179.49 123.48 C 185.39 103.52 192.77 83.73 204.21 66.22 C 212.81 53.14 224.15 40.92 239.12 35.33 M 253.41 73.60 C 246.53 76.16 242.34 82.64 238.36 88.42 C 229.25 102.94 223.57 119.27 218.69 135.61 C 231.30 140.32 243.72 145.49 255.99 151.02 C 268.27 145.50 280.70 140.33 293.31 135.62 C 287.54 116.64 280.98 97.30 268.63 81.47 C 264.91 77.15 259.68 71.77 253.41 73.60 M 101.84 160.78 C 98.72 162.35 96.40 165.53 96.47 169.13 C 96.37 175.75 99.22 181.96 102.14 187.75 C 110.25 202.74 121.39 215.78 133.06 228.09 C 143.40 219.58 154.09 211.53 164.87 203.59 C 166.68 190.24 168.05 176.77 170.39 163.47 C 153.91 159.54 137.07 156.38 120.06 156.86 C 113.86 157.17 107.42 157.83 101.84 160.78 M 341.61 163.48 C 343.84 176.80 345.51 190.19 346.97 203.61 C 357.93 211.38 368.54 219.60 378.93 228.11 C 391.09 215.24 402.75 201.60 410.87 185.76 C 413.46 180.23 416.01 174.26 415.43 168.02 C 415.10 163.73 411.30 160.91 407.56 159.56 C 400.03 156.84 391.87 156.62 383.95 156.87 C 369.62 157.35 355.52 160.22 341.61 163.48 M 204.43 226.26 C 203.44 246.08 203.43 265.93 204.44 285.75 C 221.07 296.57 238.29 306.49 256.00 315.45 C 273.70 306.47 290.93 296.58 307.56 285.74 C 308.58 265.93 308.56 246.07 307.56 226.26 C 290.92 215.42 273.68 205.51 256.00 196.47 C 238.31 205.51 221.08 215.42 204.43 226.26 M 113.18 307.11 C 106.67 316.15 100.19 325.62 97.22 336.49 C 96.08 340.97 95.63 347.08 100.12 349.90 C 106.66 353.93 114.57 354.68 122.07 355.15 C 138.40 355.53 154.61 352.55 170.40 348.61 C 168.20 335.28 166.45 321.89 165.06 308.45 C 154.11 300.63 143.48 292.40 133.05 283.90 C 126.10 291.35 119.24 298.91 113.18 307.11 M 346.99 308.37 C 345.49 321.83 343.82 335.27 341.60 348.63 C 360.44 353.14 380.03 357.02 399.43 354.21 C 404.57 353.12 410.40 352.03 414.01 347.87 C 417.27 342.25 414.70 335.44 412.51 329.89 C 404.67 312.41 391.91 297.76 378.94 283.89 C 368.55 292.39 357.95 300.62 346.99 308.37 M 218.67 376.40 C 223.67 392.94 229.37 409.53 238.76 424.17 C 242.72 429.90 247.05 436.40 254.05 438.58 C 260.13 439.80 265.00 434.72 268.61 430.55 C 281.00 414.73 287.52 395.36 293.32 376.38 C 280.70 371.66 268.28 366.43 255.98 360.94 C 243.70 366.46 231.27 371.64 218.67 376.40 Z" />
</g>
</svg>
