<?xml version="1.0" encoding="UTF-8" ?>
<!DOCTYPE svg PUBLIC "-//W3C//DTD SVG 1.1//EN" "http://www.w3.org/Graphics/SVG/1.1/DTD/svg11.dtd">
<svg width="48pt" height="48pt" viewBox="0 0 48 48" version="1.1" xmlns="http://www.w3.org/2000/svg">
<g id="#202124ff">
<path fill="#202124" opacity="1.00" d=" M 19.09 3.99 C 22.36 3.97 25.64 3.97 28.92 3.99 C 29.20 7.23 29.55 10.86 33.17 12.00 C 35.04 11.10 37.00 10.38 38.98 9.77 C 40.68 12.49 42.24 15.30 43.79 18.10 C 42.27 19.52 40.69 20.88 39.01 22.12 C 39.01 23.37 39.01 24.62 39.02 25.88 C 40.72 27.12 42.38 28.45 43.76 30.05 C 42.11 32.76 40.66 35.59 38.91 38.24 C 36.96 37.58 35.03 36.86 33.17 35.99 C 29.50 37.09 29.19 40.77 28.89 44.00 C 25.63 44.00 22.36 44.00 19.09 44.00 C 18.76 42.02 18.41 40.05 18.05 38.08 C 16.99 37.39 15.94 36.69 14.88 36.01 C 12.99 36.84 11.04 37.55 9.10 38.25 C 7.31 35.59 5.85 32.74 4.21 29.99 C 5.62 28.45 7.25 27.14 8.94 25.92 C 8.96 24.66 8.98 23.39 8.99 22.12 C 7.30 20.89 5.70 19.53 4.20 18.07 C 5.80 15.28 7.30 12.42 9.10 9.74 C 11.02 10.39 12.92 11.13 14.77 11.98 C 15.87 11.29 16.96 10.60 18.05 9.91 C 18.41 7.94 18.76 5.97 19.09 3.99 M 21.53 17.58 C 17.36 19.14 15.49 24.93 18.70 28.30 C 21.59 32.29 28.10 31.44 30.13 27.04 C 33.32 21.95 26.86 14.96 21.53 17.58 Z" />
</g>
</svg>
