<?xml version="1.0" encoding="UTF-8" ?>
<!DOCTYPE svg PUBLIC "-//W3C//DTD SVG 1.1//EN" "http://www.w3.org/Graphics/SVG/1.1/DTD/svg11.dtd">
<svg width="48pt" height="48pt" viewBox="0 0 48 48" version="1.1" xmlns="http://www.w3.org/2000/svg">
<g id="#ffffffff">
<path fill="#ffffff" opacity="1.00" d=" M 6.38 8.32 C 16.20 7.55 26.17 8.24 36.05 7.99 C 38.29 8.18 41.06 7.37 42.84 9.17 C 44.19 10.36 43.97 12.29 44.02 13.91 C 43.95 21.27 44.07 28.63 43.97 35.99 C 44.09 38.14 42.13 40.09 39.99 39.97 C 29.33 40.02 18.66 40.02 8.00 39.97 C 5.86 40.10 3.90 38.14 4.03 36.00 C 3.95 28.31 4.02 20.62 4.00 12.93 C 3.86 11.10 4.56 9.07 6.38 8.32 M 8.00 12.02 C 8.00 13.34 8.00 14.66 8.00 15.98 C 18.67 16.01 29.33 16.01 40.00 15.98 C 40.00 14.66 40.00 13.34 40.00 12.02 C 29.33 11.99 18.67 11.99 8.00 12.02 M 8.01 24.00 C 7.99 28.00 7.99 32.00 8.01 36.00 C 18.67 36.00 29.33 36.00 39.99 36.00 C 40.01 32.00 40.01 28.00 39.99 24.00 C 29.33 24.00 18.67 24.00 8.01 24.00 Z" />
</g>
</svg>
