<?xml version="1.0" encoding="UTF-8" ?>
<!DOCTYPE svg PUBLIC "-//W3C//DTD SVG 1.1//EN" "http://www.w3.org/Graphics/SVG/1.1/DTD/svg11.dtd">
<svg width="48pt" height="48pt" viewBox="0 0 48 48" version="1.1" xmlns="http://www.w3.org/2000/svg">
<g id="#202124ff">
<path fill="#202124" opacity="1.00" d=" M 18.28 4.16 C 22.07 3.79 25.92 3.79 29.71 4.16 C 32.79 5.58 31.93 9.26 32.13 11.98 C 35.97 12.61 41.44 10.20 43.84 14.29 C 44.26 22.17 43.89 30.11 44.02 38.01 C 44.29 40.19 42.19 42.29 40.01 42.02 C 29.34 42.00 18.67 42.00 7.99 42.02 C 5.81 42.30 3.70 40.19 3.98 38.01 C 4.13 30.11 3.71 22.18 4.17 14.30 C 6.55 10.19 12.04 12.62 15.88 11.98 C 16.07 9.26 15.20 5.57 18.28 4.16 M 20.01 8.05 C 20.00 9.35 20.00 10.65 20.01 11.95 C 22.67 11.99 25.33 11.99 27.99 11.95 C 28.00 10.65 28.00 9.35 27.99 8.05 C 25.33 8.01 22.67 8.01 20.01 8.05 Z" />
</g>
</svg>
