<?xml version="1.0" encoding="UTF-8" ?>
<!DOCTYPE svg PUBLIC "-//W3C//DTD SVG 1.1//EN" "http://www.w3.org/Graphics/SVG/1.1/DTD/svg11.dtd">
<svg width="1339pt" height="673pt" viewBox="0 0 1339 673" version="1.1" xmlns="http://www.w3.org/2000/svg">
<g id="#3e3c3cff">
<path fill="#3e3c3c" opacity="1.00" d=" M 407.02 3.95 C 410.45 3.81 413.55 1.81 417.02 2.06 C 421.65 2.34 426.31 1.63 430.91 2.41 C 439.57 4.00 448.48 1.80 457.09 3.84 C 463.03 5.19 469.00 6.50 475.08 7.06 C 478.26 7.24 480.84 9.52 484.00 9.84 C 488.77 10.15 493.02 12.52 497.71 13.26 C 497.52 13.94 497.15 15.29 496.96 15.97 C 504.44 19.05 512.17 21.64 519.06 25.97 C 524.56 27.66 527.34 33.04 531.92 36.09 C 534.27 37.84 536.84 39.26 539.51 40.49 C 539.41 41.15 539.22 42.46 539.12 43.12 C 540.45 43.31 541.75 43.12 542.84 42.29 C 544.40 44.64 546.24 46.80 548.47 48.54 C 552.34 51.36 553.15 56.44 556.17 59.96 C 559.30 63.82 559.80 69.12 563.13 72.85 C 565.88 76.01 565.76 80.64 564.21 84.32 C 561.41 83.83 558.16 84.12 555.84 82.23 C 554.24 79.58 553.05 76.64 550.65 74.56 C 551.03 72.25 549.04 70.88 547.74 69.32 C 543.38 64.28 538.50 59.60 532.76 56.16 C 527.99 51.06 522.19 46.90 515.78 44.10 C 510.82 41.33 508.09 34.70 501.98 34.02 C 497.23 33.25 493.02 30.72 488.40 29.47 C 484.63 28.33 481.45 25.93 477.89 24.37 C 472.05 23.67 465.98 23.69 460.46 21.37 C 456.76 20.10 452.89 18.60 448.92 19.39 C 444.96 20.29 440.98 18.42 437.05 19.53 C 433.34 20.83 429.72 18.30 426.01 19.18 C 418.15 20.72 410.08 20.42 402.17 21.58 C 398.09 22.36 393.67 21.64 390.01 23.99 C 386.18 26.48 381.45 24.48 377.47 26.49 C 371.08 27.86 365.20 30.79 358.75 31.89 C 350.57 34.63 342.24 36.89 334.28 40.24 C 328.40 41.08 322.99 44.17 319.39 48.92 C 315.04 49.69 309.91 49.77 307.11 53.78 C 306.38 53.60 304.93 53.25 304.20 53.07 C 302.80 54.80 301.41 56.53 300.01 58.25 C 293.95 57.46 290.28 63.13 285.14 65.12 C 281.82 66.23 280.27 69.82 276.99 70.96 C 272.06 73.08 266.53 74.66 262.99 78.98 C 261.46 81.10 258.87 81.68 256.53 82.41 C 255.45 84.33 254.42 86.51 252.11 87.15 C 247.16 88.85 244.77 94.29 239.70 95.74 C 236.30 97.04 233.81 99.82 230.81 101.77 C 226.91 104.43 222.79 107.06 220.23 111.16 C 218.80 113.57 215.81 114.06 213.78 115.77 C 211.98 117.71 211.12 120.34 209.24 122.21 C 207.66 123.41 205.82 124.18 204.07 125.09 C 201.74 129.64 196.82 131.85 194.02 136.03 C 190.70 140.99 184.92 143.63 181.79 148.73 C 180.12 151.36 178.46 154.01 176.34 156.32 C 173.20 159.45 172.71 164.42 169.12 167.19 C 167.50 168.76 165.02 169.73 164.35 172.06 C 163.25 175.48 162.21 179.03 159.82 181.82 C 155.34 187.24 154.86 194.88 150.14 200.15 C 147.51 202.83 147.40 206.77 146.11 210.11 C 143.76 216.43 143.14 223.20 142.41 229.85 C 142.08 232.96 140.57 235.81 140.38 238.93 C 140.24 243.64 138.69 248.20 138.92 252.95 C 139.08 260.57 137.18 268.36 139.41 275.82 C 140.25 278.48 139.53 281.25 139.83 283.96 C 140.88 287.61 143.12 291.02 142.65 294.98 C 142.33 305.15 147.84 314.16 149.54 323.97 C 150.07 326.12 149.52 329.33 152.64 329.36 C 152.51 329.94 152.25 331.10 152.13 331.69 C 156.84 334.44 158.34 339.71 160.05 344.52 C 160.88 344.35 162.56 344.02 163.39 343.85 C 162.55 345.14 161.73 346.45 160.92 347.77 C 164.14 353.03 166.32 359.70 172.67 362.00 C 172.39 363.56 172.12 365.11 171.84 366.68 C 174.40 367.93 177.02 369.08 179.44 370.60 C 181.86 371.90 182.68 374.72 184.40 376.70 C 186.60 378.25 189.74 378.25 191.46 380.56 C 195.61 385.24 201.11 388.36 206.32 391.69 C 209.88 393.94 214.17 394.41 218.01 396.00 C 221.79 397.55 226.00 397.03 229.96 396.61 C 232.27 396.46 232.58 393.61 233.58 392.03 C 234.53 392.25 235.47 392.48 236.42 392.71 C 239.99 389.46 244.49 387.30 247.48 383.42 C 249.64 380.71 253.30 380.08 255.85 377.88 C 257.96 375.84 259.57 373.36 261.29 371.00 C 262.21 371.71 263.13 372.43 264.06 373.15 C 267.36 371.49 270.72 369.96 274.13 368.53 C 274.04 364.30 271.73 360.84 268.80 357.99 C 269.16 356.72 269.52 355.47 269.88 354.20 C 267.67 350.91 266.56 347.11 265.41 343.36 C 264.63 340.74 262.85 338.59 261.93 336.04 C 261.98 333.69 262.63 331.40 262.79 329.06 C 262.75 326.11 261.25 323.47 260.49 320.68 C 260.09 315.14 262.76 309.68 261.45 304.15 C 260.33 299.41 262.26 294.74 262.87 290.07 C 263.75 283.47 269.27 278.78 270.53 272.31 C 271.89 267.17 278.08 265.67 279.65 260.73 C 280.69 257.98 282.35 255.44 284.98 253.98 C 288.85 251.79 291.49 247.55 296.05 246.64 C 304.86 243.92 313.45 239.11 322.95 239.91 C 332.29 240.70 341.62 241.60 350.91 242.86 C 354.90 243.53 358.97 242.27 362.43 240.32 C 365.81 237.84 368.55 233.91 372.95 233.25 C 379.84 234.64 386.80 231.43 393.64 233.56 C 395.86 233.88 396.99 235.95 398.31 237.51 C 404.67 238.78 411.28 241.33 415.45 246.51 C 418.44 249.05 422.62 249.77 425.41 252.64 C 428.16 254.73 429.59 257.91 431.14 260.89 C 432.60 264.05 436.05 265.31 438.75 267.16 C 439.42 269.34 440.01 271.64 441.47 273.46 C 443.63 276.27 446.93 277.98 448.90 280.97 C 451.77 285.23 453.34 290.17 455.11 294.94 C 455.87 296.87 456.01 298.94 456.00 300.99 C 455.86 307.71 457.84 314.35 456.88 321.08 C 456.49 327.66 452.21 332.99 450.25 339.09 C 448.07 346.07 443.12 351.71 440.65 358.57 C 443.79 361.23 447.69 362.13 451.70 362.36 C 455.45 364.59 457.46 368.73 460.22 371.97 C 467.82 371.07 475.35 374.14 482.87 372.29 C 485.88 371.65 488.94 371.34 492.02 371.24 C 496.59 371.03 501.16 368.89 505.74 370.18 C 509.19 372.03 511.44 375.77 515.50 376.56 C 516.32 379.42 517.94 381.92 519.74 384.25 C 521.62 386.32 520.87 389.27 521.06 391.81 C 522.61 391.77 524.17 391.74 525.74 391.71 C 529.23 386.90 533.78 382.98 537.17 378.09 C 538.42 376.07 540.69 375.32 542.92 374.98 C 545.44 371.84 548.33 369.02 551.53 366.57 C 555.13 363.77 558.51 360.31 563.01 359.04 C 567.33 358.05 571.20 362.09 571.84 366.12 C 572.92 370.02 572.11 374.72 575.10 377.87 C 577.79 380.87 580.41 383.98 583.45 386.65 C 584.82 387.93 586.80 387.26 588.48 387.31 C 588.62 388.96 588.78 390.60 588.98 392.26 C 593.75 392.07 598.22 390.32 602.65 388.70 C 606.08 387.38 609.11 384.25 613.07 385.04 C 616.91 385.62 621.17 385.97 624.33 388.45 C 627.85 393.05 631.43 397.85 632.83 403.58 C 636.95 402.90 639.22 399.25 639.54 395.33 C 641.65 392.86 643.46 390.13 644.55 387.05 C 645.06 387.49 646.08 388.37 646.59 388.80 C 648.42 388.30 650.24 387.70 652.15 387.49 C 654.47 387.95 656.70 388.79 658.99 389.38 C 659.00 391.42 659.03 393.46 659.07 395.51 C 660.66 396.44 662.25 397.36 663.85 398.29 C 664.16 402.05 664.54 405.81 664.80 409.59 C 670.12 406.77 669.53 400.40 670.64 395.41 C 673.10 390.29 671.23 384.54 672.28 379.18 C 673.46 376.01 676.61 374.24 679.06 372.13 C 683.14 368.58 688.59 367.52 693.25 364.97 C 696.83 365.54 701.88 365.34 703.42 369.41 C 704.85 373.97 708.23 377.98 708.04 382.96 C 707.97 389.11 708.36 395.26 707.95 401.41 C 704.02 404.87 701.78 409.75 699.69 414.44 C 698.45 418.80 694.79 422.30 694.98 427.07 C 694.71 429.24 696.50 430.77 697.65 432.38 C 699.80 434.95 701.44 438.34 704.85 439.46 C 707.76 440.67 710.89 439.50 713.81 438.92 C 718.27 437.86 723.05 438.24 727.30 436.29 C 729.53 435.48 731.59 433.98 734.02 433.85 C 735.44 434.26 736.70 435.05 738.00 435.75 C 737.95 431.53 738.21 427.29 737.55 423.10 C 736.82 419.23 737.68 415.33 737.52 411.44 C 739.29 409.02 740.80 406.16 740.19 403.06 C 739.36 398.42 740.66 393.84 741.23 389.26 C 740.58 389.41 739.28 389.70 738.64 389.85 C 740.45 387.22 741.35 384.17 740.96 380.97 C 740.44 376.71 743.58 373.26 743.81 369.12 C 744.15 364.45 743.68 359.72 744.58 355.08 C 745.29 351.69 743.70 348.36 743.99 344.99 C 744.74 341.18 746.79 337.75 747.48 333.93 C 747.29 329.75 746.22 325.48 747.64 321.39 C 750.01 313.78 750.40 305.77 751.36 297.90 C 751.66 289.46 751.34 280.33 755.89 272.85 C 757.52 270.19 756.84 266.96 756.95 264.01 C 756.75 259.20 759.31 254.80 759.02 249.96 C 758.45 242.04 764.77 235.83 764.90 228.05 C 765.23 219.84 766.35 211.48 769.97 204.02 C 773.20 199.44 773.24 193.60 775.49 188.58 C 777.27 184.79 776.34 180.23 778.66 176.66 C 780.24 174.28 780.98 171.52 781.42 168.72 C 785.92 164.98 785.66 158.67 787.72 153.65 C 789.10 150.52 790.68 147.46 791.44 144.11 C 792.07 144.00 793.34 143.78 793.97 143.68 C 793.97 142.23 793.97 140.79 794.00 139.36 C 789.39 138.65 784.79 137.36 780.09 137.81 C 769.81 138.47 759.48 137.43 749.21 138.21 C 741.12 139.79 733.24 142.59 724.96 143.11 C 719.79 143.43 714.79 144.85 710.04 146.87 C 704.73 149.15 698.46 149.02 693.79 152.71 C 688.61 151.29 683.08 152.70 678.84 155.88 C 675.79 158.22 671.91 158.63 668.32 159.56 C 665.65 160.70 663.68 163.04 660.94 164.02 C 658.94 164.86 656.97 163.61 655.08 163.10 C 651.83 164.93 648.96 167.35 646.55 170.19 C 642.88 171.19 639.92 173.90 636.08 174.37 C 633.25 174.69 632.47 178.01 630.07 179.09 C 624.61 181.66 619.51 185.03 615.24 189.30 C 613.77 190.59 614.17 192.73 613.82 194.46 C 610.01 195.34 606.99 197.86 604.06 200.29 C 604.02 201.95 603.98 203.61 603.95 205.28 C 600.47 206.67 598.05 210.68 593.94 210.15 C 589.63 210.14 587.60 205.37 586.28 201.94 C 584.52 193.76 590.41 186.98 594.54 180.62 C 598.59 179.75 600.46 175.76 603.80 173.74 C 608.58 170.53 613.52 167.55 618.03 163.96 C 621.57 161.02 626.60 161.14 630.11 158.15 C 634.04 155.04 638.15 151.54 643.49 151.53 C 645.03 150.00 646.55 147.98 648.98 148.05 C 651.78 148.07 654.25 146.83 656.30 144.98 C 657.31 145.20 658.34 145.43 659.38 145.66 C 663.67 142.38 668.73 140.36 673.85 138.75 C 677.69 137.61 681.07 135.39 684.76 133.88 C 688.37 132.33 692.40 133.01 696.18 132.24 C 702.56 130.96 708.36 127.46 714.94 126.98 C 718.42 126.98 721.43 124.68 724.91 124.83 C 730.11 125.22 734.99 123.00 739.99 121.93 C 744.88 119.17 750.56 120.31 755.84 119.12 C 760.33 118.25 764.64 120.14 769.03 120.71 C 774.67 120.33 780.29 118.78 785.96 119.73 C 791.87 120.83 797.84 121.50 803.81 122.11 C 808.40 116.14 811.46 109.11 816.59 103.53 C 821.07 98.69 826.94 93.92 833.99 94.83 C 834.40 96.52 834.98 98.20 835.04 99.97 C 834.23 102.37 832.90 104.55 831.64 106.73 C 830.06 109.72 826.28 110.77 824.98 113.97 C 823.52 117.22 822.41 120.63 820.83 123.84 C 823.90 126.35 827.84 126.76 831.60 127.42 C 836.05 129.47 840.54 131.48 845.25 132.92 C 850.76 134.60 855.34 138.21 860.62 140.41 C 863.74 141.68 865.74 144.59 868.71 146.11 C 872.54 148.17 876.22 150.80 878.57 154.55 C 880.53 157.80 884.46 159.36 886.07 162.87 C 887.15 165.04 888.40 167.16 889.26 169.44 C 890.26 172.17 889.21 175.08 889.58 177.89 C 890.49 181.68 892.73 184.94 894.25 188.49 C 894.72 192.37 894.86 196.29 895.80 200.11 L 894.26 198.96 C 895.58 206.57 895.10 214.43 893.19 221.89 C 893.66 230.28 892.64 238.79 890.02 246.79 C 888.67 252.41 888.60 258.24 888.32 263.99 C 888.00 268.82 886.63 273.48 885.83 278.23 C 885.35 277.58 884.39 276.26 883.91 275.60 C 882.09 280.67 883.71 286.14 882.25 291.26 C 881.56 293.81 881.09 296.41 880.97 299.05 C 880.69 304.83 878.67 310.32 877.89 316.03 C 877.38 320.44 874.79 324.40 875.02 328.93 C 874.94 332.71 875.44 336.86 873.15 340.15 C 867.15 349.87 869.89 361.90 866.65 372.43 C 864.06 381.22 862.83 390.32 860.45 399.16 C 859.43 406.20 856.20 412.63 853.47 419.11 C 852.08 426.32 852.58 433.79 850.70 440.92 C 850.73 445.44 852.12 449.83 852.33 454.35 C 856.02 456.87 856.38 461.47 857.13 465.49 C 861.64 467.35 865.85 470.69 870.98 470.39 C 877.85 470.18 884.05 466.89 890.45 464.76 C 892.43 459.08 897.94 455.39 899.17 449.37 C 897.54 447.09 895.57 444.85 895.04 442.02 C 894.68 439.09 896.21 436.42 897.45 433.90 C 894.42 428.25 897.11 421.65 895.23 415.71 C 894.68 413.21 892.49 411.48 891.89 409.03 C 892.82 406.03 894.85 403.35 894.86 400.10 C 895.11 398.09 894.78 395.82 896.13 394.13 C 899.51 389.08 904.59 385.18 910.35 383.26 C 911.85 382.73 913.34 383.73 914.79 384.05 C 918.56 385.54 922.73 384.50 926.58 385.64 C 929.51 386.54 932.57 386.80 935.56 387.48 C 940.77 389.83 945.51 393.27 951.03 394.94 C 954.30 395.39 957.32 393.51 960.36 392.56 C 964.24 391.33 966.98 387.94 970.96 386.92 C 973.82 386.04 976.36 384.41 979.15 383.37 C 984.94 381.97 991.01 381.43 996.91 382.55 C 1000.15 383.13 1003.49 381.21 1006.65 382.54 C 1010.51 384.17 1013.87 386.77 1017.58 388.71 C 1017.39 389.49 1017.02 391.03 1016.84 391.81 C 1018.48 394.31 1020.27 396.74 1021.73 399.37 C 1023.23 402.01 1022.84 405.26 1024.27 407.96 C 1024.20 406.93 1024.07 404.87 1024.00 403.84 C 1024.92 404.28 1025.85 404.72 1026.80 405.17 C 1026.05 407.42 1025.07 409.65 1024.98 412.05 C 1025.58 414.18 1027.41 415.75 1027.92 417.94 C 1028.76 421.40 1029.27 424.93 1030.21 428.37 C 1034.29 426.06 1040.27 423.61 1039.94 417.98 C 1040.18 412.49 1041.71 406.91 1040.35 401.46 C 1038.85 395.62 1036.29 390.02 1035.90 383.93 C 1035.79 380.53 1034.27 377.41 1034.00 374.05 C 1033.38 367.01 1030.48 360.22 1031.30 353.06 C 1024.69 353.61 1018.72 350.38 1012.61 348.44 C 1007.89 346.49 1002.42 345.99 998.57 342.36 C 992.86 338.19 986.72 334.48 980.13 331.87 C 978.31 331.13 977.32 329.33 976.04 327.96 C 973.82 325.13 970.41 323.65 968.05 320.98 C 964.96 317.95 965.14 313.31 963.40 309.59 C 961.09 304.65 959.74 299.32 958.43 294.05 C 957.90 289.82 956.27 285.34 958.09 281.20 C 959.62 277.22 959.77 272.22 963.53 269.52 C 966.64 267.50 970.05 266.00 973.30 264.22 C 978.48 261.30 984.58 264.45 990.08 262.72 C 994.28 261.45 998.59 260.87 1002.98 261.01 C 1012.08 259.04 1021.39 260.30 1030.60 259.98 C 1031.64 257.39 1032.62 254.76 1033.07 251.99 C 1033.79 247.08 1036.89 242.92 1037.69 238.02 C 1038.10 235.60 1038.59 233.12 1039.96 231.03 C 1042.96 226.05 1045.98 220.97 1047.42 215.28 C 1048.80 214.37 1050.19 213.48 1051.59 212.59 C 1052.26 207.78 1053.36 203.05 1054.52 198.35 C 1056.87 193.73 1062.11 192.16 1065.87 189.01 C 1068.58 190.55 1071.36 191.96 1074.18 193.32 C 1074.21 196.15 1073.83 199.01 1074.22 201.83 C 1075.31 204.16 1077.79 206.13 1077.24 208.96 C 1076.71 213.62 1076.81 218.44 1075.07 222.88 C 1078.53 227.47 1076.19 233.17 1077.72 238.28 C 1078.74 241.79 1077.24 245.37 1077.67 248.95 C 1077.99 251.94 1076.52 254.72 1076.41 257.67 C 1077.21 261.28 1078.23 264.87 1078.27 268.61 C 1080.65 270.56 1082.89 273.06 1086.08 273.63 C 1091.10 274.76 1096.13 276.04 1100.78 278.30 C 1103.58 279.65 1105.29 282.46 1108.00 283.95 C 1109.97 285.05 1112.11 285.79 1114.21 286.64 C 1115.09 288.36 1115.52 290.68 1117.55 291.45 C 1124.41 294.80 1131.70 297.53 1137.72 302.32 C 1139.06 305.79 1141.94 307.89 1145.32 309.19 C 1146.50 313.56 1151.14 315.01 1153.79 318.24 C 1157.07 322.03 1160.27 325.90 1163.11 330.03 C 1163.95 331.46 1165.40 332.38 1167.09 332.51 C 1172.82 332.74 1178.10 330.21 1183.45 328.58 C 1188.26 327.69 1193.13 326.97 1198.04 327.04 C 1203.12 327.06 1207.98 325.37 1212.89 324.26 C 1214.88 324.06 1216.15 322.47 1217.50 321.18 C 1219.25 321.49 1221.01 322.08 1222.82 321.88 C 1226.16 320.84 1228.79 318.31 1232.11 317.20 C 1237.05 315.81 1241.66 311.76 1247.01 313.97 C 1247.73 313.06 1248.45 312.16 1249.20 311.26 C 1255.99 310.27 1261.84 306.51 1268.16 304.10 C 1271.31 302.90 1273.81 300.25 1277.08 299.41 C 1283.60 299.76 1289.18 295.79 1294.30 292.24 C 1297.16 290.19 1300.94 289.98 1303.72 287.77 C 1305.66 286.39 1307.37 284.32 1309.93 284.18 C 1314.86 283.81 1319.12 280.88 1324.07 280.60 C 1323.82 283.87 1324.43 287.61 1322.35 290.42 C 1319.91 293.41 1316.78 295.95 1313.09 297.16 C 1306.86 299.22 1302.27 304.42 1295.90 306.15 C 1289.35 307.82 1285.07 314.51 1278.04 314.70 C 1274.48 314.90 1271.30 316.59 1268.28 318.32 C 1260.62 322.73 1251.92 325.03 1244.34 329.59 C 1243.25 329.12 1242.18 328.66 1241.13 328.19 C 1234.00 331.39 1226.87 334.60 1219.62 337.48 C 1212.93 340.31 1205.27 338.60 1198.65 341.63 C 1194.87 343.23 1191.07 344.99 1186.91 345.23 C 1184.08 345.34 1181.51 346.56 1179.47 348.48 C 1178.78 348.38 1177.41 348.19 1176.72 348.10 C 1177.68 353.01 1179.94 357.80 1179.28 362.91 C 1178.44 367.02 1181.32 370.85 1180.37 374.94 C 1178.97 381.32 1178.46 387.86 1178.92 394.38 C 1176.00 396.52 1175.59 400.22 1174.48 403.40 C 1171.96 411.08 1168.05 418.18 1164.15 425.22 C 1161.94 429.20 1157.73 431.74 1156.16 436.13 C 1155.07 439.18 1152.21 440.85 1149.93 442.90 C 1146.99 445.32 1145.27 448.95 1141.96 450.95 C 1139.69 452.30 1138.61 454.76 1137.47 457.01 C 1135.61 456.99 1133.75 456.97 1131.92 456.97 C 1129.64 458.43 1126.92 460.30 1124.10 459.36 C 1117.85 457.05 1111.69 453.88 1107.24 448.80 C 1104.29 445.43 1100.66 442.52 1098.50 438.54 C 1097.89 434.74 1097.43 430.79 1094.94 427.68 C 1095.17 426.65 1095.43 425.64 1095.69 424.62 C 1092.48 421.41 1093.08 416.14 1089.05 413.49 C 1089.04 410.89 1089.02 408.30 1088.96 405.71 C 1087.06 406.55 1084.53 407.03 1084.62 409.66 C 1085.32 409.52 1086.73 409.25 1087.43 409.12 C 1082.09 411.97 1083.08 418.70 1080.31 423.33 C 1077.13 429.12 1077.51 436.18 1073.86 441.76 C 1072.02 444.55 1071.22 447.80 1069.98 450.86 C 1068.43 453.07 1066.31 454.99 1063.89 456.19 C 1061.55 456.50 1059.21 456.10 1056.90 455.96 C 1054.84 453.70 1052.29 451.81 1050.96 448.99 C 1049.75 446.44 1047.82 444.38 1045.54 442.77 C 1043.43 445.63 1041.40 448.55 1039.60 451.62 C 1035.61 452.02 1031.96 454.07 1027.96 454.20 C 1026.19 452.91 1025.34 450.34 1022.94 450.04 C 1019.83 449.29 1016.91 447.95 1014.35 446.05 C 1014.80 441.33 1009.70 439.26 1009.04 434.95 C 1008.53 433.18 1008.10 431.39 1007.65 429.60 C 1006.08 428.79 1004.51 427.96 1002.98 427.11 C 1000.04 428.94 998.39 431.97 997.02 435.03 C 995.77 438.35 991.98 439.26 989.76 441.75 C 987.33 444.43 983.01 444.54 981.35 448.05 C 978.69 448.02 976.10 448.57 973.69 449.67 C 968.62 452.13 962.63 449.90 957.56 452.45 C 955.44 453.04 954.74 455.26 953.73 456.95 C 950.57 456.96 947.24 456.72 944.40 458.34 C 939.59 460.92 934.06 461.27 928.95 462.98 C 924.88 464.56 920.37 462.59 916.35 464.40 C 912.47 465.37 911.64 469.69 909.53 472.50 C 906.69 476.31 903.64 479.95 900.44 483.45 C 896.61 487.96 889.65 488.27 886.58 493.63 C 880.84 490.86 874.87 494.13 868.95 494.11 C 863.75 494.65 858.75 492.79 854.05 490.82 C 850.45 488.52 848.05 484.79 844.54 482.34 C 841.94 476.23 838.04 470.78 834.80 465.00 C 835.54 463.97 836.30 462.95 837.06 461.93 C 835.01 456.53 833.40 450.79 833.60 444.97 C 834.97 438.70 835.47 432.28 835.32 425.88 C 835.33 420.10 839.42 415.50 840.35 409.93 C 843.79 400.98 845.64 391.50 847.08 382.04 C 847.65 377.12 850.57 372.88 851.14 367.98 C 851.81 361.10 854.71 354.58 854.08 347.57 C 855.89 346.28 858.11 344.96 858.22 342.46 C 859.01 336.67 859.99 330.87 859.97 325.01 C 859.76 319.66 862.47 314.87 863.89 309.85 C 864.77 307.01 863.75 304.02 864.30 301.14 C 864.86 298.37 866.27 295.85 866.78 293.07 C 867.33 288.74 866.42 284.24 867.77 280.02 C 868.50 277.58 870.50 275.88 872.05 273.96 C 871.53 271.60 871.10 269.22 870.77 266.84 C 871.72 266.11 872.70 265.41 873.69 264.72 C 871.99 259.16 874.02 253.53 874.03 247.91 C 874.02 241.64 877.82 236.19 878.45 230.04 C 878.13 224.95 878.00 219.84 877.24 214.80 C 876.55 211.47 878.38 208.30 878.14 204.97 C 877.90 202.46 876.82 200.16 876.22 197.74 C 876.01 195.83 876.72 193.96 876.80 192.07 C 875.29 187.92 873.36 183.83 870.23 180.65 C 868.47 178.89 868.42 176.27 867.77 174.02 C 867.07 170.91 865.53 167.99 863.30 165.71 C 860.89 163.22 857.20 162.64 854.80 160.14 C 850.44 155.96 844.73 153.56 839.03 151.82 C 833.18 149.99 828.09 146.37 822.21 144.65 C 817.65 143.22 812.84 142.93 808.10 142.91 C 803.08 151.48 801.64 161.50 797.48 170.46 C 796.41 173.74 793.44 175.71 791.52 178.41 C 790.07 182.89 790.30 187.72 789.02 192.24 C 787.34 198.15 785.80 204.22 782.48 209.46 C 780.85 211.85 781.18 214.86 780.43 217.54 C 778.67 222.88 778.86 228.61 777.19 233.98 C 776.25 238.57 772.48 242.14 772.18 246.91 C 772.00 250.25 771.74 253.59 770.85 256.82 C 769.87 260.12 771.04 263.58 770.32 266.92 C 769.60 271.51 766.36 275.32 766.09 280.01 C 765.49 286.72 764.12 293.33 763.71 300.07 C 763.38 305.52 760.12 310.39 760.61 315.96 C 761.22 322.42 758.56 328.56 758.99 335.01 C 759.56 339.36 755.90 342.69 756.02 346.95 C 756.08 354.79 753.86 362.62 755.67 370.43 C 754.05 372.66 752.23 375.08 752.30 377.99 C 752.44 381.68 753.41 385.34 753.01 389.06 C 752.77 392.33 751.73 395.61 752.55 398.89 C 753.38 402.48 751.68 405.96 751.22 409.49 C 748.95 417.15 750.08 425.23 750.99 433.00 C 749.66 442.90 749.39 453.04 750.95 462.95 C 751.29 466.64 749.83 470.27 750.42 473.96 C 751.66 482.08 749.68 490.50 752.33 498.43 C 753.26 500.84 752.25 503.36 752.37 505.83 C 752.76 507.91 753.59 509.89 753.94 511.99 C 754.22 514.61 753.28 517.16 753.29 519.78 C 754.51 524.55 757.32 528.89 757.59 533.91 C 757.74 537.41 758.58 540.82 759.60 544.17 C 761.21 548.87 759.77 554.17 762.49 558.55 C 766.21 564.92 766.15 572.68 770.04 578.97 C 771.58 581.97 774.29 584.76 773.56 588.42 C 780.11 596.74 781.26 608.40 789.43 615.59 C 792.20 617.84 794.77 620.35 796.71 623.39 C 799.94 628.49 805.64 631.18 809.23 635.99 C 813.03 639.18 815.73 644.13 821.00 645.06 C 826.39 646.32 831.22 649.56 836.84 649.83 C 840.85 650.04 844.89 650.77 848.91 650.37 C 853.96 648.80 856.93 644.08 860.61 640.62 C 864.54 637.02 867.22 632.09 867.37 626.68 C 870.47 626.79 873.48 627.61 876.18 629.18 C 875.53 634.89 874.74 640.62 874.93 646.40 C 874.46 646.48 873.52 646.65 873.05 646.74 C 870.80 651.16 868.70 655.73 865.61 659.66 C 860.10 664.03 853.90 668.01 846.88 669.30 C 843.57 668.77 840.31 667.83 836.94 667.85 C 828.10 668.12 818.75 664.89 812.93 658.04 C 811.89 657.07 810.38 656.91 809.13 656.41 C 808.60 655.28 808.07 654.14 807.57 653.02 C 805.05 653.00 802.54 653.00 800.03 653.03 C 798.53 651.08 797.17 649.04 795.80 647.01 C 793.74 643.70 788.80 643.73 787.06 640.08 C 785.06 636.48 782.81 633.03 780.18 629.86 C 776.54 625.34 775.11 619.59 772.34 614.60 C 768.76 611.43 766.70 607.04 763.32 603.70 C 763.93 596.66 757.74 591.76 757.13 585.04 C 756.55 579.76 752.83 575.41 752.70 570.02 C 752.69 565.19 750.06 561.00 748.39 556.63 C 745.33 550.00 745.83 542.38 743.06 535.68 C 743.76 535.09 744.48 534.50 745.20 533.91 C 743.16 527.70 739.71 521.62 740.26 514.88 C 740.31 511.21 741.31 507.24 739.18 503.94 C 739.69 501.30 740.12 498.61 739.74 495.93 C 738.81 488.60 737.74 481.28 737.14 473.92 C 736.97 470.33 738.37 466.82 737.81 463.22 C 737.29 459.31 736.76 455.41 736.29 451.50 C 735.79 448.62 737.62 445.95 737.27 443.08 C 737.14 441.21 736.89 439.36 736.67 437.50 C 736.05 441.19 735.46 445.24 732.32 447.71 C 732.37 450.40 731.52 452.76 728.77 453.64 C 727.64 457.78 723.78 459.95 720.93 462.80 C 714.42 462.47 707.87 465.21 701.44 463.23 C 696.41 461.66 691.45 459.47 686.06 459.66 C 683.51 455.96 681.32 451.99 678.13 448.78 C 676.21 447.03 677.28 444.27 677.30 442.05 C 676.39 441.00 675.49 439.96 674.60 438.92 C 671.38 438.93 668.18 439.23 664.98 439.06 C 661.59 438.96 659.07 436.37 656.73 434.24 C 654.42 432.27 655.14 428.85 653.68 426.41 C 652.22 424.72 650.32 423.51 648.58 422.17 C 646.67 423.26 644.24 423.91 643.21 426.03 C 641.03 429.88 639.46 434.12 636.49 437.48 C 633.28 441.21 629.13 444.63 628.46 449.84 C 625.92 451.11 623.05 453.34 620.10 451.95 C 615.63 450.75 614.28 445.35 609.77 444.19 C 610.39 441.26 610.87 438.30 611.21 435.33 C 611.79 435.00 612.95 434.34 613.53 434.01 C 609.18 428.46 614.39 422.01 613.76 415.95 C 614.19 412.26 612.01 409.09 609.43 406.71 C 605.44 408.68 600.45 409.00 597.83 413.06 C 598.86 418.32 599.02 423.69 599.98 428.97 C 601.43 436.23 594.47 441.44 594.64 448.55 C 591.45 451.17 590.01 455.02 588.52 458.73 C 585.66 461.73 582.44 465.35 577.93 465.35 C 569.73 466.08 559.65 462.46 557.02 453.95 C 553.99 448.10 550.52 442.33 549.07 435.85 C 549.16 448.18 548.27 461.47 540.94 471.89 C 536.03 477.23 533.24 484.06 528.69 489.68 C 525.73 493.48 521.15 495.42 517.85 498.87 C 512.99 503.77 507.79 508.88 500.99 510.85 C 497.11 511.90 493.36 513.38 489.45 514.28 C 487.89 509.72 482.09 510.25 480.24 505.91 C 481.46 501.28 480.01 496.62 480.12 491.96 C 480.67 485.64 482.18 479.28 481.05 472.93 C 483.15 468.79 485.78 464.80 486.47 460.12 C 487.46 454.29 491.89 449.81 492.93 444.01 C 493.67 440.56 494.74 437.20 495.90 433.88 C 490.68 436.21 484.83 436.80 479.90 439.79 C 475.50 441.26 471.91 444.31 467.54 445.79 C 465.87 447.43 463.62 448.80 461.24 447.71 C 455.85 446.32 453.47 441.00 450.69 436.77 C 445.96 436.95 443.39 441.17 440.77 444.48 C 434.97 445.96 430.26 450.63 424.06 450.62 C 417.72 450.76 411.35 451.43 405.02 451.09 C 400.05 449.45 394.08 447.46 391.98 442.16 C 391.38 440.76 390.92 439.31 390.43 437.88 C 388.34 436.55 385.55 434.79 385.89 431.95 C 386.79 427.55 387.01 422.85 385.27 418.62 C 383.94 415.91 384.85 412.92 384.96 410.07 C 385.28 406.90 384.66 403.75 383.88 400.70 C 377.28 402.40 370.86 404.97 363.99 405.37 C 360.97 408.83 361.03 413.64 359.55 417.78 C 361.26 421.83 363.83 427.39 359.90 430.98 C 356.96 433.73 358.64 438.09 357.21 441.50 C 356.02 444.43 356.19 447.62 355.58 450.68 C 353.62 453.59 351.22 456.32 348.40 458.43 C 344.24 460.27 339.75 457.98 335.96 456.25 C 330.84 454.25 327.79 449.43 324.21 445.56 C 323.96 443.37 324.80 441.24 325.22 439.12 C 324.01 437.70 322.80 436.28 321.57 434.88 C 322.76 431.48 325.64 429.28 328.65 427.56 C 329.96 421.40 330.30 415.12 328.68 408.98 C 327.42 408.64 326.19 408.24 324.91 408.08 C 320.77 409.88 316.13 410.92 312.86 414.24 C 312.46 419.62 314.91 424.88 313.59 430.21 C 312.51 436.45 314.68 442.70 313.90 448.97 C 313.37 453.19 313.13 457.44 312.57 461.66 C 311.20 465.02 309.28 468.24 309.02 471.95 C 308.21 479.09 305.32 485.73 303.41 492.61 C 302.62 496.26 299.50 498.66 297.99 501.96 C 295.83 505.76 294.84 510.48 291.16 513.21 C 291.08 514.35 291.01 515.50 290.94 516.66 C 285.74 520.58 282.68 526.72 277.01 530.04 C 274.58 531.70 272.88 534.15 270.88 536.26 C 276.09 537.89 281.03 540.39 285.09 544.07 C 282.36 546.99 279.55 549.83 276.73 552.67 C 271.55 548.33 264.04 545.58 257.57 548.70 C 253.67 550.55 254.16 557.36 258.39 558.50 C 265.76 560.80 274.42 560.05 280.64 565.31 C 289.27 572.62 286.97 588.00 277.41 593.45 C 265.52 599.89 249.38 597.57 240.24 587.42 C 242.94 584.65 245.68 581.91 248.38 579.13 C 253.94 583.76 261.57 587.35 268.83 584.69 C 273.37 583.27 274.70 576.00 270.46 573.50 C 265.22 571.20 259.24 571.96 253.88 570.06 C 248.77 568.50 244.00 564.73 242.68 559.36 C 240.99 554.06 242.67 548.54 244.74 543.62 C 241.05 544.48 237.38 546.37 233.49 545.69 C 228.73 545.04 223.88 544.51 219.41 542.64 C 216.46 541.37 213.23 541.22 210.12 540.65 C 207.20 539.77 204.20 536.24 201.52 539.55 C 199.07 533.79 193.23 531.07 188.57 527.47 C 186.34 523.35 185.16 518.65 182.14 514.98 C 179.12 511.45 177.00 507.30 174.36 503.51 C 171.79 500.47 174.10 496.43 173.82 492.92 C 174.78 486.68 174.38 480.07 177.17 474.26 C 179.79 468.11 180.38 461.04 184.77 455.72 C 186.75 453.17 186.81 449.84 187.18 446.78 C 193.57 442.09 195.19 433.35 201.30 428.37 C 204.70 425.47 207.03 421.58 208.48 417.39 C 207.81 417.49 206.47 417.69 205.80 417.79 C 205.98 417.19 206.34 415.97 206.52 415.37 C 202.95 413.87 199.30 412.58 195.67 411.27 C 190.81 409.51 189.29 403.10 183.98 402.19 C 179.14 401.05 174.69 397.79 172.83 393.08 C 171.85 390.41 168.83 389.86 166.54 388.81 C 165.76 386.61 164.96 384.35 163.39 382.58 C 161.29 379.99 157.60 379.13 155.96 376.10 C 153.05 370.99 149.93 366.01 146.56 361.19 C 145.91 361.33 144.62 361.60 143.97 361.74 C 145.67 356.14 142.68 350.63 140.43 345.65 C 134.67 339.06 132.45 330.32 130.91 321.91 C 130.36 319.41 129.81 316.29 127.10 315.26 C 127.99 313.42 129.40 311.44 128.67 309.30 C 128.01 308.35 127.09 307.62 126.26 306.83 C 125.22 303.55 124.20 300.26 123.08 297.00 C 123.99 294.75 125.36 292.45 124.96 289.93 C 124.20 287.18 121.67 285.00 121.95 281.99 C 121.91 280.04 122.84 278.28 123.62 276.56 C 122.23 269.10 123.58 261.50 122.92 253.98 C 122.85 250.33 121.33 246.52 123.00 243.02 C 125.50 236.96 127.17 230.54 126.71 223.94 C 128.17 219.17 129.20 214.19 131.79 209.86 C 133.77 206.46 133.99 202.38 135.91 198.95 C 138.91 193.49 138.81 187.01 141.36 181.39 C 142.96 177.94 144.59 174.52 146.03 171.00 C 146.93 168.72 149.22 167.49 150.77 165.71 C 152.52 164.08 153.19 161.72 154.05 159.56 C 157.88 157.64 158.44 153.06 160.89 149.92 C 163.22 146.81 164.24 142.70 167.54 140.39 C 171.33 137.31 175.00 133.99 177.84 129.98 C 180.22 126.53 183.72 123.97 185.65 120.19 C 186.17 120.22 187.20 120.27 187.72 120.30 C 190.15 115.32 194.73 112.04 197.84 107.56 C 201.03 104.88 204.84 102.93 208.91 102.01 C 210.95 98.49 213.10 94.91 216.41 92.41 C 220.22 89.53 222.93 85.40 227.17 83.05 C 231.30 80.67 234.03 76.31 238.57 74.58 C 241.33 73.41 244.19 72.39 246.65 70.63 C 252.79 66.06 258.93 61.46 265.31 57.23 C 270.25 54.67 274.34 50.78 279.36 48.38 C 282.60 46.67 285.03 43.68 288.61 42.56 C 291.92 41.48 294.40 39.04 297.08 36.96 C 298.81 37.02 300.48 37.56 302.15 37.98 C 309.57 32.70 318.24 29.73 326.00 25.03 C 333.49 20.26 342.09 17.16 350.93 16.20 C 354.64 15.86 357.47 13.26 360.56 11.49 C 363.97 10.52 367.60 10.71 371.08 10.03 C 374.46 9.59 377.48 7.78 380.85 7.33 C 389.60 6.43 398.34 5.42 407.02 3.95 M 1056.62 235.45 C 1053.75 243.68 1051.34 252.23 1046.73 259.70 C 1050.45 263.44 1055.79 264.17 1060.83 264.11 C 1061.25 262.15 1062.40 260.15 1061.86 258.11 C 1061.69 256.76 1060.86 255.43 1061.27 254.07 C 1064.41 245.91 1063.07 236.82 1060.75 228.62 C 1059.25 230.82 1057.63 232.97 1056.62 235.45 M 379.48 255.19 C 382.02 259.04 385.79 261.77 389.23 264.75 C 391.82 266.90 393.38 269.94 395.35 272.60 C 396.76 274.57 399.08 275.50 400.87 277.06 C 402.99 280.56 403.58 284.68 404.54 288.59 C 405.05 290.52 407.30 290.97 408.82 291.86 C 408.23 292.84 407.64 293.83 407.06 294.81 C 411.16 304.00 412.47 314.11 413.10 324.06 C 413.52 330.81 410.76 337.32 411.58 344.08 C 411.21 347.88 411.33 351.80 410.50 355.52 C 407.62 359.85 404.48 364.07 402.61 368.99 C 408.58 367.41 412.01 362.12 416.93 358.87 C 419.92 356.67 421.21 353.10 422.99 350.00 C 424.42 347.53 427.19 346.19 428.59 343.70 C 430.13 340.90 431.17 337.81 433.24 335.33 C 435.53 332.21 438.61 329.15 438.72 325.04 C 439.01 322.02 439.65 319.05 439.95 316.04 C 440.33 312.26 438.50 308.77 438.07 305.09 C 438.11 303.24 439.40 301.71 440.13 300.07 C 438.08 297.76 435.46 295.70 434.64 292.59 C 433.83 288.78 429.94 287.09 427.91 284.05 C 425.64 281.31 424.85 277.24 421.45 275.56 C 418.48 273.93 415.30 272.54 412.95 270.02 C 409.72 266.95 407.56 262.59 403.31 260.73 C 400.64 259.29 397.58 258.98 394.62 258.69 C 391.66 253.30 384.56 252.78 379.48 255.19 M 314.35 260.54 C 306.70 264.01 298.59 267.23 292.74 273.49 C 290.75 277.70 287.97 281.43 284.65 284.68 C 280.49 288.69 280.88 294.91 278.99 300.00 C 276.51 307.52 279.08 315.37 278.25 323.03 C 277.94 326.71 279.61 330.17 280.13 333.76 C 281.26 340.92 285.59 346.93 288.74 353.31 C 288.73 353.90 288.71 355.07 288.70 355.66 C 291.95 358.07 293.23 362.18 296.35 364.67 C 298.87 366.75 302.12 365.18 304.99 365.01 C 309.83 363.99 314.08 367.19 318.85 367.28 C 319.56 364.81 320.48 362.14 319.17 359.69 C 317.18 355.15 317.84 350.14 318.72 345.42 C 319.53 342.21 317.00 339.32 317.55 336.12 C 318.74 326.93 321.19 317.96 324.17 309.21 C 325.71 305.30 323.32 299.80 327.76 297.47 C 328.23 294.36 328.18 291.16 329.07 288.14 C 330.75 283.94 333.54 280.30 335.21 276.10 C 337.03 272.11 338.15 266.97 342.96 265.63 C 342.99 264.96 343.04 263.62 343.07 262.95 C 341.73 262.18 340.43 261.33 338.98 260.81 C 330.87 259.10 322.47 258.69 314.35 260.54 M 353.64 276.58 C 350.43 280.56 350.10 285.98 347.18 290.13 C 343.37 295.86 340.06 302.07 338.61 308.84 C 337.52 313.65 337.51 318.61 336.47 323.42 C 335.43 327.73 334.52 332.06 333.45 336.36 C 333.49 339.94 334.09 343.50 334.06 347.10 C 334.07 350.83 336.07 354.23 336.01 357.97 C 335.95 362.51 335.73 367.21 337.52 371.51 C 339.21 376.88 345.48 378.81 350.53 379.28 C 352.57 374.61 355.80 370.63 358.30 366.22 C 360.23 362.92 363.38 360.64 366.19 358.16 C 368.13 356.55 370.23 354.51 372.98 354.88 C 376.84 355.21 380.93 358.70 384.55 355.66 C 391.71 350.40 391.04 340.51 393.54 332.84 C 395.59 322.55 395.43 311.31 390.47 301.87 C 390.56 296.71 388.56 291.70 385.33 287.72 C 382.06 283.92 377.66 281.24 374.72 277.13 C 370.42 272.85 365.76 268.55 359.87 266.65 C 358.21 270.21 356.01 273.46 353.64 276.58 M 1007.11 277.81 C 1002.75 278.66 998.36 276.57 994.04 277.74 C 991.50 278.32 989.48 280.04 987.29 281.31 C 984.81 282.76 981.98 283.37 979.27 284.16 C 977.85 287.15 976.03 290.52 977.43 293.88 C 979.83 299.77 983.87 304.79 986.97 310.32 C 990.23 313.97 994.85 316.16 998.03 319.94 C 1002.34 324.92 1008.60 327.50 1014.82 329.17 C 1014.94 329.79 1015.16 331.02 1015.27 331.63 C 1018.57 331.88 1021.68 332.99 1024.64 334.45 C 1027.89 336.51 1030.72 332.09 1030.78 329.26 C 1029.46 323.85 1030.87 318.29 1029.43 312.91 C 1029.63 307.91 1030.57 302.87 1029.53 297.89 C 1028.46 292.98 1029.74 288.03 1029.81 283.10 C 1029.72 281.48 1030.40 279.38 1028.85 278.26 C 1024.56 277.68 1020.18 278.38 1015.92 277.49 C 1012.99 276.81 1010.01 277.27 1007.11 277.81 M 1046.83 279.35 C 1042.92 285.55 1044.06 293.05 1044.06 299.99 C 1044.09 303.46 1045.01 306.83 1045.53 310.24 C 1045.65 314.47 1044.15 318.63 1044.73 322.88 C 1045.48 328.18 1044.53 333.64 1046.01 338.86 C 1050.73 340.93 1055.90 341.35 1060.96 342.07 C 1062.02 341.27 1063.07 340.46 1064.15 339.65 C 1064.16 335.32 1062.87 331.18 1062.02 326.99 C 1062.40 324.25 1064.35 321.89 1064.12 319.05 C 1064.28 313.96 1062.43 309.06 1062.81 303.98 C 1062.98 300.92 1061.59 298.10 1061.22 295.12 C 1061.35 292.04 1061.94 289.00 1062.31 285.94 C 1060.48 284.02 1059.20 281.50 1056.96 280.04 C 1053.69 278.98 1050.18 279.70 1046.83 279.35 M 1075.88 291.18 C 1076.72 296.74 1077.45 302.37 1076.80 308.00 C 1076.09 313.62 1077.08 319.28 1076.27 324.88 C 1075.88 330.57 1077.92 336.06 1078.15 341.72 C 1083.42 342.56 1088.78 343.55 1094.13 342.74 C 1100.02 341.90 1105.73 340.00 1111.72 339.74 C 1112.27 340.77 1112.84 341.80 1113.41 342.84 C 1117.22 341.95 1121.14 342.01 1125.03 341.86 C 1128.10 341.69 1130.28 339.15 1133.02 338.06 C 1135.34 337.74 1137.65 338.54 1140.00 338.58 C 1142.41 337.88 1144.71 336.80 1147.11 336.00 C 1146.10 332.56 1143.55 330.13 1140.58 328.32 C 1138.11 326.96 1137.37 324.18 1136.67 321.68 C 1134.80 320.86 1132.91 320.03 1131.46 318.59 C 1128.91 315.98 1125.45 314.66 1122.63 312.42 C 1119.43 309.79 1115.16 308.28 1113.21 304.37 C 1110.65 303.44 1107.98 302.72 1105.62 301.35 C 1103.56 300.08 1102.74 297.52 1100.74 296.24 C 1097.33 294.88 1093.63 294.38 1090.35 292.71 C 1086.66 290.86 1082.93 289.10 1079.06 287.70 C 1077.97 288.84 1076.91 290.00 1075.88 291.18 M 1144.97 352.42 C 1139.19 352.54 1133.70 354.62 1127.98 355.13 C 1124.08 355.42 1120.37 356.77 1116.51 357.23 C 1108.35 358.19 1100.10 357.59 1091.94 358.50 C 1087.29 359.20 1082.66 357.86 1078.01 358.14 C 1075.00 362.49 1076.11 367.89 1076.04 372.84 C 1077.66 369.98 1079.51 367.06 1082.34 365.25 C 1087.20 363.58 1091.62 366.55 1095.86 368.48 C 1097.79 373.36 1099.58 378.31 1101.86 383.06 C 1104.34 390.09 1105.23 397.83 1109.12 404.30 C 1109.20 408.32 1110.52 412.15 1111.25 416.07 C 1111.74 420.32 1115.34 423.19 1116.58 427.17 C 1118.03 432.49 1125.42 434.98 1129.92 431.88 C 1134.49 428.97 1140.73 426.94 1141.80 420.87 C 1143.00 415.40 1149.19 414.23 1152.34 410.31 C 1155.33 404.66 1156.43 398.20 1159.69 392.67 C 1161.74 389.10 1162.03 384.91 1162.03 380.89 C 1161.75 377.24 1165.03 374.56 1165.10 370.98 C 1165.40 367.94 1163.24 365.52 1162.27 362.82 C 1161.76 359.75 1162.02 356.62 1161.91 353.52 C 1159.82 352.40 1157.78 351.19 1155.79 349.93 C 1152.25 351.02 1148.72 352.37 1144.97 352.42 M 1045.76 355.90 C 1045.59 362.29 1048.69 367.99 1050.07 374.06 C 1050.49 379.95 1051.52 386.61 1056.06 390.82 C 1055.87 386.85 1054.12 382.49 1056.98 379.04 C 1061.44 372.59 1059.88 364.54 1058.87 357.31 C 1054.44 358.59 1049.98 357.24 1045.76 355.90 M 437.34 385.00 C 437.17 389.45 434.91 394.08 436.61 398.43 C 435.25 402.79 439.16 406.17 443.02 407.09 C 444.43 406.75 445.60 405.82 446.84 405.10 C 446.24 402.71 445.82 400.23 446.46 397.80 C 447.45 393.70 446.72 389.51 445.77 385.49 C 444.50 384.64 443.23 383.79 441.97 382.94 C 440.42 383.61 438.87 384.29 437.34 385.00 M 405.71 393.68 C 404.25 399.06 405.98 404.57 406.51 409.95 C 406.95 413.07 405.50 416.29 406.64 419.33 C 407.83 422.39 410.00 425.60 413.44 426.28 C 418.59 427.34 423.76 428.41 428.98 429.15 C 428.96 427.95 428.95 426.75 428.94 425.55 C 427.51 424.80 426.03 424.15 424.74 423.19 C 423.73 421.02 423.46 418.61 422.52 416.43 C 421.18 414.76 419.25 413.69 417.96 411.99 C 416.80 409.87 416.32 407.46 416.03 405.09 C 415.50 401.35 417.27 397.70 416.57 393.96 C 416.06 390.47 416.31 386.94 415.96 383.45 C 411.14 385.03 407.94 389.36 405.71 393.68 M 302.50 385.03 C 303.31 386.79 304.15 388.53 305.03 390.26 C 304.64 391.59 304.24 392.91 303.85 394.24 C 310.45 396.21 317.68 393.29 322.68 388.94 C 316.62 385.35 309.40 384.59 302.50 385.03 M 266.94 391.99 C 264.03 394.28 259.83 393.51 257.03 395.98 C 254.14 398.29 250.94 400.54 249.41 404.04 C 253.91 403.99 258.42 402.94 262.91 403.77 C 268.11 404.97 272.81 401.82 277.88 401.28 C 281.89 400.83 285.28 398.55 288.80 396.79 C 287.18 393.29 285.93 389.65 284.91 385.95 C 278.35 385.29 272.15 388.29 266.94 391.99 M 489.41 396.54 C 487.52 397.63 486.12 399.35 484.58 400.86 C 489.67 399.98 494.82 399.47 499.98 399.66 C 500.13 397.72 500.25 395.78 500.29 393.84 C 496.63 394.58 492.88 395.13 489.41 396.54 M 975.51 413.68 C 973.25 416.54 972.41 420.24 971.01 423.56 C 974.92 424.53 978.23 421.88 981.71 420.62 C 985.78 419.10 988.36 415.45 991.02 412.23 C 989.26 410.97 987.61 408.45 985.15 409.39 C 981.73 410.26 978.49 411.81 975.51 413.68 M 279.16 421.39 C 273.14 423.54 266.56 426.15 260.31 423.10 C 257.93 423.83 255.45 424.12 252.97 424.05 C 247.93 423.92 242.86 424.35 237.87 423.50 C 233.71 422.74 229.46 423.75 225.44 424.78 C 219.62 429.62 216.39 436.66 211.23 442.08 C 208.18 447.22 206.82 453.32 202.88 457.93 C 200.70 460.57 199.83 464.00 197.71 466.70 C 195.71 468.96 196.42 472.31 194.68 474.70 C 191.89 478.22 193.36 482.90 193.02 487.01 C 193.12 490.18 191.58 493.04 191.08 496.11 C 192.35 500.41 194.75 504.31 196.73 508.33 C 198.45 512.18 202.72 513.61 205.46 516.58 C 209.03 520.21 214.12 521.41 218.61 523.47 C 222.76 525.51 227.33 527.60 232.07 526.44 C 237.71 525.32 243.47 526.56 249.11 525.70 C 252.53 524.69 255.98 523.56 259.60 524.11 C 262.78 521.86 266.76 520.47 268.91 517.03 C 270.83 514.08 273.58 511.77 275.45 508.81 C 278.15 502.77 282.46 497.67 286.55 492.54 C 289.64 486.01 291.23 478.90 294.21 472.33 C 296.05 468.58 296.66 464.35 298.82 460.75 C 301.38 456.90 298.95 452.24 299.06 448.04 C 299.11 442.88 298.60 437.73 297.14 432.77 C 295.46 427.84 298.33 422.53 295.62 417.79 C 289.98 418.28 284.82 420.92 279.16 421.39 M 932.72 420.75 C 930.09 422.20 927.52 423.75 924.76 424.91 C 926.10 426.38 927.45 427.86 928.81 429.34 C 928.52 431.33 927.47 433.53 928.62 435.45 C 929.74 437.81 932.72 438.33 935.07 437.92 C 938.75 437.35 942.46 435.82 945.01 433.01 C 948.67 429.22 945.86 423.62 946.74 419.00 C 942.05 419.06 936.98 418.34 932.72 420.75 M 575.09 421.33 C 573.44 421.53 571.29 420.55 570.17 422.19 C 567.31 424.94 567.36 429.51 569.92 432.45 C 569.29 433.19 568.66 433.94 568.05 434.69 C 569.76 436.51 571.18 438.58 572.35 440.79 C 574.44 440.14 577.18 440.48 578.64 438.58 C 580.65 436.21 582.24 433.53 584.04 431.01 C 582.39 427.49 581.71 423.64 581.68 419.78 C 579.53 420.46 577.39 421.52 575.09 421.33 M 517.14 428.00 C 514.68 432.82 510.99 436.97 509.18 442.12 C 507.78 445.94 506.40 449.78 504.52 453.40 C 502.31 457.27 503.55 462.20 500.97 465.91 C 499.11 468.70 497.68 471.74 496.90 475.00 C 495.19 479.72 497.91 484.68 496.06 489.42 C 504.21 491.22 511.66 485.20 515.38 478.46 C 517.19 474.95 520.51 472.61 524.25 471.54 C 525.19 468.72 527.33 466.66 529.56 464.81 C 529.57 459.69 532.91 455.62 534.30 450.92 C 534.51 446.59 533.30 442.33 533.34 438.00 C 533.12 435.50 533.67 432.35 531.36 430.65 C 528.27 428.37 525.19 426.02 521.92 424.00 C 519.52 423.68 518.29 426.35 517.14 428.00 Z" />
<path fill="#3e3c3c" opacity="1.00" d=" M 572.20 363.07 C 575.11 361.45 572.39 366.42 572.20 363.07 Z" />
<path fill="#3e3c3c" opacity="1.00" d=" M 492.66 398.12 C 494.13 396.48 496.11 395.72 498.32 395.92 C 496.80 397.47 494.80 398.13 492.66 398.12 Z" />
<path fill="#3e3c3c" opacity="1.00" d=" M 8.91 542.88 C 16.23 535.67 27.86 534.34 37.28 537.74 C 42.97 539.74 47.06 544.53 50.00 549.61 C 46.65 551.57 43.27 553.48 39.88 555.37 C 37.82 552.77 35.84 549.77 32.65 548.45 C 27.18 546.27 19.92 547.35 16.40 552.40 C 13.63 556.36 14.02 561.44 13.93 566.03 C 13.99 571.11 13.53 576.82 16.83 581.09 C 21.35 586.66 30.26 586.84 35.89 582.88 C 38.80 580.87 38.62 576.98 39.00 573.87 C 35.27 573.73 31.53 573.69 27.80 573.69 C 27.73 570.13 27.71 566.57 27.75 563.01 C 35.49 562.97 43.24 562.98 50.98 562.99 C 50.99 573.99 50.99 584.99 50.99 595.99 C 47.42 595.99 43.85 595.98 40.28 595.95 C 40.24 593.23 40.20 590.50 40.17 587.79 C 38.23 590.56 36.40 593.76 33.15 595.17 C 23.96 599.40 12.04 596.10 6.32 587.77 C 1.52 580.91 0.17 572.23 0.57 564.03 C 0.97 556.37 3.22 548.33 8.91 542.88 Z" />
<path fill="#3e3c3c" opacity="1.00" d=" M 337.47 536.75 C 345.34 535.01 354.25 536.07 360.70 541.20 C 366.65 545.97 369.47 553.61 370.19 561.02 C 370.99 569.65 370.22 578.93 365.48 586.42 C 356.55 600.64 332.43 600.62 323.50 586.42 C 317.74 577.01 317.50 565.23 319.93 554.74 C 321.90 546.16 328.72 538.59 337.47 536.75 M 339.34 548.41 C 334.02 550.51 331.85 556.66 331.99 561.99 C 332.07 567.98 331.10 574.46 334.11 579.96 C 337.79 586.54 348.00 587.40 353.18 582.16 C 356.62 578.74 357.02 573.60 357.04 569.02 C 356.93 563.69 357.62 557.92 354.91 553.07 C 351.95 547.76 344.73 546.11 339.34 548.41 Z" />
<path fill="#3e3c3c" opacity="1.00" d=" M 636.43 536.75 C 644.33 535.01 653.27 536.06 659.73 541.22 C 665.68 546.02 668.49 553.68 669.19 561.10 C 669.99 569.71 669.20 578.95 664.47 586.42 C 655.55 600.64 631.43 600.61 622.50 586.42 C 616.98 577.43 616.55 566.23 618.61 556.13 C 620.23 547.01 627.20 538.70 636.43 536.75 M 638.35 548.42 C 633.06 550.49 630.86 556.59 630.99 561.90 C 631.09 568.33 629.91 575.57 633.91 581.15 C 639.20 588.18 652.14 586.55 654.84 577.91 C 656.71 571.30 656.19 564.19 655.51 557.44 C 654.57 549.58 645.31 545.18 638.35 548.42 Z" />
<path fill="#3e3c3c" opacity="1.00" d=" M 1074.65 539.74 C 1085.75 533.31 1100.83 535.20 1110.10 544.05 C 1107.38 546.99 1104.56 549.83 1101.72 552.66 C 1096.56 548.34 1089.10 545.60 1082.64 548.66 C 1078.66 550.46 1079.11 557.33 1083.37 558.49 C 1090.76 560.80 1099.42 560.06 1105.68 565.33 C 1114.47 572.83 1111.83 588.74 1101.71 593.82 C 1089.91 599.81 1074.18 597.37 1065.24 587.42 C 1067.94 584.58 1070.73 581.82 1073.59 579.13 C 1078.94 583.96 1086.62 587.26 1093.79 584.71 C 1098.33 583.31 1099.67 576.12 1095.54 573.51 C 1092.32 571.93 1088.62 571.98 1085.16 571.40 C 1079.96 570.70 1074.46 569.15 1070.82 565.14 C 1064.41 557.78 1066.25 544.82 1074.65 539.74 Z" />
<path fill="#3e3c3c" opacity="1.00" d=" M 1222.44 536.75 C 1230.99 534.84 1240.89 536.29 1247.32 542.63 C 1253.93 549.22 1255.71 559.06 1255.45 568.05 C 1255.28 576.71 1252.70 586.07 1245.75 591.75 C 1235.28 599.80 1218.18 598.78 1209.75 588.21 C 1203.02 579.10 1202.42 566.90 1204.61 556.15 C 1206.21 547.02 1213.20 538.70 1222.44 536.75 M 1224.29 548.43 C 1218.98 550.54 1216.83 556.70 1216.99 562.01 C 1217.07 568.02 1216.09 574.51 1219.13 580.00 C 1223.07 586.99 1234.37 587.45 1239.12 581.09 C 1242.15 577.09 1242.00 571.81 1242.05 567.05 C 1241.97 562.12 1242.36 556.73 1239.51 552.43 C 1236.33 547.57 1229.45 546.22 1224.29 548.43 Z" />
<path fill="#3e3c3c" opacity="1.00" d=" M 87.99 537.00 C 101.47 536.98 114.94 536.98 128.42 537.00 C 128.46 540.80 128.46 544.60 128.42 548.41 C 119.30 548.49 110.18 548.45 101.07 548.41 C 100.98 552.26 100.97 556.12 100.99 559.99 C 108.80 560.00 116.60 559.97 124.40 559.99 C 124.46 563.79 124.46 567.60 124.42 571.41 C 116.63 571.49 108.85 571.45 101.07 571.40 C 100.96 575.79 100.96 580.18 101.07 584.57 C 110.18 584.50 119.30 584.48 128.42 584.57 C 128.46 588.37 128.46 592.17 128.42 595.98 C 114.94 596.00 101.47 595.99 87.99 595.98 C 87.98 576.32 87.98 556.66 87.99 537.00 Z" />
<path fill="#3e3c3c" opacity="1.00" d=" M 162.99 537.00 C 172.70 537.07 182.40 536.78 192.10 537.10 C 197.02 536.99 201.01 540.42 204.41 543.57 C 209.01 549.35 209.28 557.77 206.37 564.38 C 204.78 568.20 201.16 570.49 197.82 572.61 C 201.18 580.58 205.41 588.14 209.08 595.97 C 204.36 596.01 199.64 596.00 194.92 596.00 C 191.45 588.72 188.27 581.30 184.86 573.99 C 181.90 573.99 178.95 573.99 176.00 573.99 C 175.96 581.32 176.02 588.65 175.98 595.97 C 171.65 596.00 167.32 596.00 163.00 595.97 C 162.98 576.31 162.98 556.66 162.99 537.00 M 176.03 548.27 C 175.97 553.15 175.97 558.04 176.00 562.92 C 181.24 562.85 186.56 563.50 191.75 562.54 C 194.92 561.62 195.19 557.73 195.10 554.99 C 195.20 552.49 194.33 549.36 191.62 548.63 C 186.47 547.81 181.22 548.37 176.03 548.27 Z" />
<path fill="#3e3c3c" opacity="1.00" d=" M 405.76 537.02 C 410.46 536.96 415.15 536.97 419.85 537.00 C 427.33 550.01 435.11 562.87 441.60 576.42 C 441.90 563.28 441.59 550.14 441.76 537.00 C 445.83 536.97 449.91 536.97 453.98 537.00 C 454.00 556.65 453.99 576.30 453.99 595.95 C 449.33 596.01 444.67 596.06 440.01 595.93 C 432.24 583.09 424.72 570.07 418.12 556.58 C 417.82 569.71 418.08 582.85 417.99 595.99 C 413.91 596.00 409.84 596.00 405.76 595.97 C 405.70 576.32 405.70 556.67 405.76 537.02 Z" />
<path fill="#3e3c3c" opacity="1.00" d=" M 534.76 537.02 C 539.46 536.96 544.15 536.97 548.85 537.00 C 556.33 550.01 564.11 562.87 570.60 576.41 C 570.90 563.28 570.60 550.13 570.76 537.00 C 574.83 536.97 578.91 536.97 582.98 537.00 C 583.00 556.65 582.99 576.30 582.99 595.95 C 578.37 596.02 573.74 596.07 569.13 595.93 C 561.15 583.20 553.76 570.06 547.12 556.57 C 546.81 569.70 547.09 582.84 546.99 595.97 C 542.91 596.00 538.84 596.00 534.76 595.97 C 534.70 576.32 534.70 556.67 534.76 537.02 Z" />
<path fill="#3e3c3c" opacity="1.00" d=" M 716.39 537.13 C 721.78 536.89 727.19 536.89 732.60 537.14 C 738.81 556.79 745.35 576.35 751.72 595.95 C 747.22 596.02 742.74 596.01 738.25 595.91 C 736.91 591.25 735.50 586.61 734.02 581.99 C 727.42 581.97 720.83 581.91 714.24 582.07 C 712.88 586.73 711.48 591.37 709.99 595.98 C 705.68 596.00 701.38 596.00 697.07 595.98 C 703.38 576.32 710.09 556.80 716.39 537.13 M 717.47 570.96 C 721.95 571.01 726.43 571.00 730.92 570.96 C 728.63 563.50 726.68 555.94 724.11 548.58 C 721.57 555.93 719.56 563.46 717.47 570.96 Z" />
<path fill="#3e3c3c" opacity="1.00" d=" M 783.99 537.00 C 788.32 536.97 792.65 536.97 796.98 537.00 C 797.02 544.66 796.96 552.32 797.00 559.99 C 804.32 559.99 811.65 559.99 818.98 559.99 C 819.01 552.32 818.97 544.66 818.99 537.00 C 823.32 536.97 827.65 536.97 831.98 537.00 C 831.99 556.66 831.99 576.31 831.99 595.97 C 827.65 596.00 823.32 596.00 818.99 595.97 C 818.94 587.78 819.08 579.59 818.90 571.40 C 811.62 571.47 804.35 571.47 797.08 571.41 C 796.89 579.59 797.03 587.78 796.99 595.97 C 792.65 596.00 788.32 596.00 784.00 595.97 C 783.98 576.31 783.98 556.66 783.99 537.00 Z" />
<path fill="#3e3c3c" opacity="1.00" d=" M 913.00 536.99 C 921.65 536.98 930.30 536.99 938.95 536.96 C 943.35 536.88 948.01 537.67 951.52 540.53 C 961.11 548.15 960.50 565.42 949.85 571.82 C 942.55 575.80 933.96 573.85 926.05 574.16 C 925.91 581.43 926.01 588.70 925.99 595.97 C 921.65 596.00 917.32 596.00 913.00 595.97 C 912.98 576.31 912.98 556.65 913.00 536.99 M 926.03 548.27 C 925.96 553.16 925.96 558.04 926.00 562.92 C 931.21 562.86 936.49 563.49 941.65 562.52 C 944.88 561.69 945.19 557.73 945.10 554.98 C 945.18 552.47 944.30 549.31 941.57 548.59 C 936.43 547.81 931.20 548.37 926.03 548.27 Z" />
<path fill="#3e3c3c" opacity="1.00" d=" M 1001.39 537.13 C 1006.78 536.89 1012.19 536.89 1017.60 537.14 C 1023.82 556.79 1030.36 576.34 1036.71 595.95 C 1032.22 596.02 1027.73 596.01 1023.25 595.91 C 1021.91 591.24 1020.49 586.61 1019.02 581.99 C 1012.42 581.97 1005.83 581.91 999.24 582.07 C 997.88 586.73 996.48 591.37 994.99 595.98 C 990.68 596.00 986.37 596.00 982.07 595.99 C 988.38 576.33 995.08 556.80 1001.39 537.13 M 1002.46 570.95 C 1006.94 571.01 1011.43 571.00 1015.92 570.96 C 1013.63 563.48 1011.67 555.91 1009.11 548.52 C 1006.59 555.91 1004.55 563.44 1002.46 570.95 Z" />
<path fill="#3e3c3c" opacity="1.00" d=" M 1143.55 536.99 C 1152.84 536.98 1162.13 536.98 1171.42 536.99 C 1171.44 540.39 1171.43 543.79 1171.40 547.20 C 1168.93 547.21 1166.48 547.24 1164.03 547.26 C 1163.95 560.07 1163.95 572.88 1164.03 585.69 C 1166.48 585.71 1168.93 585.73 1171.40 585.77 C 1171.43 589.17 1171.44 592.57 1171.42 595.98 C 1162.12 595.99 1152.84 595.99 1143.55 595.98 C 1143.51 592.57 1143.51 589.17 1143.56 585.77 C 1146.01 585.73 1148.48 585.71 1150.95 585.69 C 1151.02 572.88 1151.00 560.07 1150.95 547.26 C 1148.48 547.24 1146.01 547.21 1143.56 547.20 C 1143.51 543.79 1143.51 540.39 1143.55 536.99 Z" />
<path fill="#3e3c3c" opacity="1.00" d=" M 1290.76 537.01 C 1295.45 536.97 1300.14 536.97 1304.84 536.99 C 1312.33 550.01 1320.12 562.87 1326.60 576.43 C 1326.89 563.29 1326.59 550.14 1326.76 536.99 C 1330.83 536.97 1334.91 536.98 1339.00 537.00 L 1339.00 595.95 C 1334.38 596.01 1329.77 596.05 1325.17 595.95 C 1320.55 589.32 1317.05 582.02 1312.87 575.13 C 1309.19 569.17 1306.37 562.75 1303.15 556.54 C 1302.77 569.68 1303.09 582.83 1302.99 595.97 C 1298.91 596.00 1294.83 596.00 1290.76 595.97 C 1290.69 576.32 1290.69 556.66 1290.76 537.01 Z" />
</g>
</svg>
